<?xml version="1.0" encoding="utf-8"?>
<!-- Generator: Adobe Illustrator 27.5.0, SVG Export Plug-In . SVG Version: 6.00 Build 0)  -->
<svg version="1.1" xmlns="http://www.w3.org/2000/svg" xmlns:xlink="http://www.w3.org/1999/xlink" x="0px" y="0px"
	 viewBox="0 0 500 500" style="enable-background:new 0 0 500 500;" xml:space="preserve">
<g id="BACKGROUND">
	<rect style="fill:#00000000;" width="500" height="500"/>
</g>

<g id="OBJECTS">
	<g>
		<path style="opacity:0.29;fill:#00000000" d="M436.013,291.304l-19.485-11.278V191.63c0-7.368-6.067-16.711-13.551-20.867
			L224.324,69.214c-4.305-2.391-8.141-2.545-10.623-0.842c-1.39,0.953-3.158,1.815-3.934,2.176
			c-0.039,0.017-0.077,0.036-0.115,0.053c-0.176,0.081-0.28,0.127-0.28,0.127l0.001,0.02c-2.236,1.137-3.613,3.545-3.613,7.042
			v45.619l0.9,111.457L76.939,307.124c-2.876,1.635-4.082,4.684-3.638,7.515v9.964v2.375c0.335,2.058,1.545,3.996,3.638,5.186
			l183.168,104.115c3.309,1.881,6.984,2.863,10.676,2.949c4.049,0.095,8.118-0.886,11.747-2.949l33.189-18.865l11.794,6.809
			c1.548,0.894,2.881,0.943,3.839,0.379c-0.004,0.003-0.008,0.007-0.013,0.01l4.116-2.392c1.621-0.942,2.172-3.638,0.873-6.993
			l-3.024-7.808l26.12-14.847l48.05,27.811c2.566,1.482,4.859,1.535,6.46,0.443c-0.083,0.056-0.16,0.122-0.246,0.172l5.054-2.937
			c1.182-0.687,2.026-1.96,2.378-3.725c1.903,0.688,3.58,0.537,4.833-0.319c-0.083,0.057-0.161,0.123-0.249,0.173l5.054-2.937
			c1.039-0.604,1.809-1.668,2.221-3.114c1.623,0.429,3.052,0.227,4.154-0.525c-0.083,0.056-0.16,0.121-0.246,0.172l5.054-2.937
			c1.579-0.917,2.554-2.878,2.562-5.665l0.27-92.653C444.79,300.955,440.888,294.146,436.013,291.304z M270.772,273.329
			L270.772,273.329 M118.765,196.945c0.112,0.016,0.221,0.027,0.336,0.052C118.987,196.972,118.877,196.961,118.765,196.945z
			 M119.438,197.091c0.096,0.028,0.19,0.048,0.288,0.081C119.629,197.139,119.534,197.118,119.438,197.091z M120.291,197.398
			c0.028,0.013,0.056,0.021,0.084,0.034C120.347,197.419,120.319,197.411,120.291,197.398z M118.172,196.897
			c0.109,0.001,0.216-0.003,0.328,0.007C118.388,196.894,118.281,196.898,118.172,196.897z M119.904,85.076
			c-0.021-0.005-0.041-0.007-0.062-0.012C119.863,85.069,119.884,85.072,119.904,85.076z M118.793,84.87
			c-0.038-0.006-0.075-0.008-0.113-0.014C118.718,84.861,118.755,84.864,118.793,84.87z M117.707,84.738
			c-0.048-0.004-0.095-0.004-0.143-0.008C117.612,84.734,117.658,84.734,117.707,84.738z M116.647,84.68
			c-0.058-0.001-0.114,0.002-0.171,0.002C116.533,84.683,116.589,84.679,116.647,84.68z M110.941,85.835
			c-0.108,0.051-0.211,0.11-0.317,0.164C110.73,85.945,110.833,85.886,110.941,85.835z M115.616,84.696
			c-0.069,0.004-0.136,0.012-0.204,0.017C115.481,84.708,115.547,84.699,115.616,84.696z M114.615,84.783
			c-0.076,0.009-0.148,0.025-0.223,0.036C114.466,84.808,114.539,84.793,114.615,84.783z M113.645,84.942
			c-0.083,0.017-0.164,0.04-0.246,0.059C113.482,84.982,113.562,84.959,113.645,84.942z M112.708,85.171
			c-0.089,0.026-0.175,0.058-0.263,0.086C112.533,85.229,112.619,85.197,112.708,85.171z M111.806,85.469
			c-0.098,0.037-0.191,0.081-0.287,0.12C111.615,85.55,111.709,85.506,111.806,85.469z M117.928,196.892
			c-0.106,0.005-0.206,0.024-0.308,0.038C117.722,196.916,117.822,196.897,117.928,196.892z M116.885,197.103
			c-0.09,0.034-0.174,0.08-0.26,0.122C116.711,197.183,116.795,197.137,116.885,197.103z M117.389,196.959
			c-0.1,0.02-0.193,0.053-0.289,0.082C117.196,197.012,117.289,196.979,117.389,196.959z M331.859,424.207
			c0.044-0.043,0.082-0.095,0.123-0.142C331.94,424.112,331.903,424.164,331.859,424.207z M332.277,423.679
			c0.042-0.067,0.082-0.137,0.121-0.208C332.359,423.542,332.32,423.612,332.277,423.679z M332.606,423.012
			c0.028-0.074,0.059-0.147,0.084-0.225C332.665,422.866,332.635,422.937,332.606,423.012z M332.856,422.084
			c0.004-0.026,0.012-0.049,0.016-0.075C332.868,422.036,332.86,422.058,332.856,422.084z M332.929,421.133
			c0-0.091-0.008-0.187-0.011-0.28C332.922,420.946,332.93,421.042,332.929,421.133z M332.865,420.161
			c-0.014-0.115-0.031-0.232-0.051-0.35C332.833,419.93,332.851,420.046,332.865,420.161z M332.662,419.076
			c-0.027-0.112-0.051-0.223-0.082-0.337C332.612,418.853,332.635,418.963,332.662,419.076z M414.248,420.607
			c0.078-0.064,0.146-0.143,0.22-0.213C414.394,420.464,414.326,420.543,414.248,420.607z M414.751,420.119
			c0.069-0.079,0.128-0.171,0.193-0.256C414.879,419.948,414.82,420.041,414.751,420.119z M415.189,419.539
			c0.064-0.099,0.116-0.212,0.174-0.317C415.305,419.327,415.252,419.44,415.189,419.539z M415.557,418.868
			c0.062-0.134,0.112-0.283,0.166-0.427C415.668,418.585,415.619,418.734,415.557,418.868z M426.265,413.799
			c0.076-0.063,0.142-0.139,0.215-0.207C426.407,413.66,426.341,413.737,426.265,413.799z M426.768,413.312
			c0.066-0.075,0.122-0.163,0.184-0.243C426.89,413.149,426.834,413.237,426.768,413.312z M427.206,412.731
			c0.057-0.089,0.104-0.192,0.158-0.287C427.31,412.539,427.263,412.642,427.206,412.731z M427.574,412.06
			c0.05-0.108,0.088-0.228,0.133-0.342C427.662,411.832,427.624,411.953,427.574,412.06z M427.869,411.302 M437.448,407.396
			c0.076-0.063,0.142-0.139,0.214-0.207C437.59,407.257,437.524,407.334,437.448,407.396z M437.951,406.908
			c0.064-0.072,0.118-0.158,0.178-0.235C438.069,406.751,438.015,406.836,437.951,406.908z M438.389,406.328
			c0.056-0.088,0.102-0.188,0.155-0.281C438.491,406.139,438.445,406.24,438.389,406.328z M438.757,405.657
			c0.054-0.117,0.096-0.248,0.145-0.372C438.853,405.409,438.811,405.54,438.757,405.657z M439.052,404.899
			c0.051-0.159,0.088-0.334,0.129-0.504C439.139,404.565,439.103,404.74,439.052,404.899z"/>
		<g>
			<g>
				<g>
					<path style="fill:#9AABB2;" d="M398.379,327.299L218.661,219.523c-7.484-4.156-13.551-13.499-13.551-20.867l-4.727-147.742
						c0,0,2.497-1.099,4.33-2.357c2.482-1.703,6.318-1.549,10.623,0.842l178.653,101.549c7.484,4.156,13.551,13.499,13.551,20.867
						v145.42c0,3.43-1.314,5.827-3.474,6.991C401.585,325.563,398.379,327.299,398.379,327.299z"/>
					<path style="fill:#EDEBEC;" d="M388.974,325.813L210.321,224.264c-7.484-4.156-13.551-13.499-13.551-20.867V57.977
						c0-7.368,6.067-9.972,13.551-5.816l178.653,101.549c7.484,4.156,13.551,13.499,13.551,20.867v145.42
						C402.525,327.365,396.458,329.969,388.974,325.813z"/>
					<path style="fill:#5C8393;" d="M383.584,305.255l-168.972-96.012c-5.977-3.39-9.661-9.664-9.661-16.455V74.612
						c0-4.588,5.043-7.458,9.081-5.168l170.45,96.85c6.567,3.724,10.613,10.617,10.613,18.078v114.333
						C395.096,304.521,388.703,308.158,383.584,305.255z"/>
					<path style="fill:#ACBCC1;" d="M304.59,113.658c0-1.355-0.861-2.931-1.923-3.521c-1.062-0.59-1.923,0.03-1.923,1.385
						c0,1.355,0.861,2.931,1.923,3.521C303.729,115.633,304.59,115.013,304.59,113.658z"/>
				</g>
				<path style="fill:#9AABB2;" d="M380.512,339.392l-118.716,65.799L77.357,300.353l-13.044-7.414v11.851v2.374
					c0.335,2.058,1.545,3.996,3.638,5.186l183.168,104.115c3.309,1.881,6.984,2.862,10.676,2.949
					c4.049,0.095,8.118-0.886,11.747-2.949l115.432-65.613c2.092-1.189,3.302-3.128,3.637-5.186v-2.374V332.93L380.512,339.392z"/>
				<path style="fill:#EDEBEC;" d="M67.951,300.056l183.168,104.116c6.938,3.944,15.485,3.944,22.424,0l115.432-65.613
					c4.983-2.833,4.983-9.914,0-12.746L205.806,221.697c-6.938-3.943-15.485-3.943-22.423,0L67.951,287.311
					C62.968,290.143,62.968,297.224,67.951,300.056z"/>
				<polygon style="fill:#ACBCC1;" points="386.365,317.586 212.467,218.74 212.467,225.483 386.365,324.33 				"/>
				<g>
					<path style="fill:#ACBCC1;" d="M167.547,250.233l-7.908-4.495c-0.46-0.261-0.493-0.666-0.076-0.904l5.415-3.085
						c0.418-0.238,1.13-0.22,1.59,0.042l7.908,4.495c0.46,0.261,0.494,0.666,0.075,0.904l-5.414,3.085
						C168.718,250.514,168.006,250.495,167.547,250.233z"/>
					<path style="fill:#ACBCC1;" d="M177.869,256.101l-7.908-4.495c-0.46-0.262-0.493-0.666-0.076-0.905l5.415-3.085
						c0.418-0.238,1.13-0.22,1.59,0.042l7.908,4.495c0.46,0.261,0.493,0.667,0.075,0.905l-5.414,3.085
						C179.04,256.381,178.329,256.362,177.869,256.101z"/>
					<path style="fill:#ACBCC1;" d="M188.191,261.968l-7.908-4.495c-0.46-0.261-0.493-0.667-0.075-0.905l5.414-3.085
						c0.418-0.238,1.13-0.22,1.59,0.042l7.908,4.495c0.46,0.261,0.493,0.666,0.075,0.905l-5.414,3.085
						C189.363,262.248,188.651,262.229,188.191,261.968z"/>
					<path style="fill:#ACBCC1;" d="M198.514,267.836l-7.908-4.495c-0.46-0.261-0.493-0.666-0.075-0.905l5.414-3.085
						c0.418-0.238,1.13-0.22,1.59,0.042l7.908,4.495c0.46,0.261,0.493,0.666,0.075,0.905l-5.414,3.085
						C199.685,268.116,198.974,268.097,198.514,267.836z"/>
					<path style="fill:#ACBCC1;" d="M208.836,273.703l-7.908-4.495c-0.46-0.262-0.493-0.666-0.075-0.905l5.414-3.085
						c0.418-0.238,1.13-0.22,1.59,0.042l7.908,4.495c0.46,0.262,0.493,0.667,0.075,0.905l-5.414,3.085
						C210.007,273.983,209.296,273.964,208.836,273.703z"/>
					<path style="fill:#ACBCC1;" d="M219.158,279.57l-7.908-4.495c-0.46-0.262-0.493-0.667-0.075-0.905l5.414-3.085
						c0.418-0.238,1.13-0.22,1.59,0.042l7.908,4.495c0.46,0.261,0.493,0.666,0.075,0.905l-5.414,3.085
						C220.33,279.85,219.618,279.832,219.158,279.57z"/>
					<path style="fill:#ACBCC1;" d="M229.481,285.438l-7.908-4.495c-0.46-0.261-0.493-0.666-0.075-0.904l5.414-3.085
						c0.418-0.239,1.13-0.22,1.59,0.042l7.908,4.495c0.46,0.261,0.493,0.666,0.075,0.904l-5.415,3.085
						C230.652,285.718,229.94,285.699,229.481,285.438z"/>
					<path style="fill:#ACBCC1;" d="M239.803,291.305l-7.908-4.495c-0.46-0.261-0.493-0.666-0.076-0.905l5.415-3.085
						c0.418-0.238,1.13-0.22,1.59,0.042l7.908,4.495c0.46,0.262,0.494,0.667,0.075,0.905l-5.414,3.085
						C240.974,291.585,240.263,291.566,239.803,291.305z"/>
					<path style="fill:#ACBCC1;" d="M250.125,297.172l-7.908-4.495c-0.46-0.261-0.493-0.667-0.075-0.905l5.415-3.085
						c0.418-0.238,1.13-0.22,1.59,0.042l7.908,4.495c0.46,0.262,0.493,0.666,0.075,0.905l-5.414,3.085
						C251.297,297.452,250.585,297.434,250.125,297.172z"/>
					<path style="fill:#ACBCC1;" d="M260.448,303.04l-7.908-4.495c-0.46-0.261-0.493-0.666-0.075-0.905l5.414-3.085
						c0.418-0.239,1.13-0.22,1.59,0.042l7.908,4.495c0.46,0.261,0.493,0.666,0.075,0.905l-5.414,3.085
						C261.619,303.32,260.907,303.301,260.448,303.04z"/>
					<path style="fill:#ACBCC1;" d="M270.77,308.907l-7.908-4.495c-0.46-0.261-0.493-0.666-0.075-0.904l5.414-3.086
						c0.418-0.238,1.13-0.22,1.59,0.042l7.908,4.495c0.46,0.261,0.493,0.667,0.075,0.905l-5.414,3.085
						C271.941,309.187,271.229,309.168,270.77,308.907z"/>
					<path style="fill:#ACBCC1;" d="M281.092,314.774l-7.908-4.495c-0.46-0.262-0.493-0.667-0.075-0.905l5.414-3.085
						c0.418-0.238,1.13-0.22,1.59,0.042l7.908,4.495c0.46,0.261,0.493,0.666,0.075,0.905l-5.414,3.085
						C282.264,315.054,281.552,315.036,281.092,314.774z"/>
					<path style="fill:#ACBCC1;" d="M291.415,320.642l-7.908-4.495c-0.46-0.261-0.493-0.667-0.075-0.905l5.414-3.085
						c0.418-0.238,1.13-0.22,1.59,0.041l7.908,4.495c0.46,0.261,0.493,0.666,0.075,0.905l-5.414,3.085
						C292.586,320.922,291.874,320.903,291.415,320.642z"/>
					<path style="fill:#ACBCC1;" d="M317.97,335.736l-6.077-3.454c-0.46-0.261-0.493-0.666-0.075-0.904l5.414-3.086
						c0.418-0.238,1.13-0.219,1.59,0.042l6.077,3.454c0.46,0.261,0.493,0.666,0.075,0.905l-5.414,3.085
						C319.141,336.016,318.429,335.997,317.97,335.736z"/>
					<path style="fill:#ACBCC1;" d="M326.398,340.527l-6.077-3.454c-0.46-0.262-0.493-0.667-0.075-0.905l5.414-3.085
						c0.418-0.238,1.13-0.22,1.59,0.042l6.077,3.454c0.46,0.261,0.493,0.666,0.075,0.905l-5.414,3.085
						C327.57,340.807,326.858,340.788,326.398,340.527z"/>
					<path style="fill:#ACBCC1;" d="M334.827,345.318l-6.077-3.454c-0.46-0.262-0.493-0.666-0.075-0.905l5.414-3.085
						c0.418-0.238,1.13-0.22,1.59,0.042l6.077,3.454c0.46,0.261,0.493,0.666,0.075,0.905l-5.414,3.085
						C335.998,345.598,335.286,345.579,334.827,345.318z"/>
					<path style="fill:#ACBCC1;" d="M343.255,350.109l-6.077-3.454c-0.46-0.261-0.493-0.666-0.075-0.905l5.414-3.085
						c0.418-0.239,1.13-0.22,1.59,0.042l6.077,3.454c0.46,0.262,0.493,0.667,0.075,0.905l-5.414,3.085
						C344.427,350.389,343.715,350.37,343.255,350.109z"/>
					<path style="fill:#ACBCC1;" d="M308.542,341.108l-6.077-3.454c-0.46-0.261-0.493-0.666-0.075-0.904l5.414-3.085
						c0.418-0.238,1.13-0.22,1.59,0.042l6.077,3.454c0.46,0.262,0.493,0.667,0.075,0.905l-5.414,3.085
						C309.713,341.388,309.002,341.37,308.542,341.108z"/>
					<path style="fill:#ACBCC1;" d="M316.97,345.899l-6.077-3.454c-0.46-0.262-0.493-0.667-0.075-0.905l5.414-3.085
						c0.418-0.238,1.13-0.22,1.59,0.042l6.077,3.454c0.46,0.261,0.493,0.666,0.075,0.904l-5.414,3.085
						C318.142,346.179,317.43,346.16,316.97,345.899z"/>
					<path style="fill:#ACBCC1;" d="M325.399,350.69l-6.077-3.454c-0.46-0.261-0.493-0.666-0.075-0.905l5.414-3.085
						c0.418-0.238,1.13-0.22,1.59,0.042l6.077,3.454c0.46,0.262,0.493,0.666,0.075,0.905l-5.414,3.085
						C326.57,350.97,325.859,350.952,325.399,350.69z"/>
					<path style="fill:#ACBCC1;" d="M299.114,346.48l-6.077-3.454c-0.46-0.261-0.493-0.666-0.075-0.905l5.414-3.085
						c0.418-0.238,1.13-0.22,1.59,0.042l6.077,3.454c0.46,0.261,0.493,0.667,0.075,0.905l-5.414,3.085
						C300.285,346.76,299.574,346.742,299.114,346.48z"/>
					<path style="fill:#ACBCC1;" d="M307.543,351.271l-6.077-3.454c-0.46-0.262-0.493-0.667-0.075-0.905l5.414-3.085
						c0.418-0.238,1.13-0.22,1.59,0.042l6.077,3.454c0.46,0.261,0.493,0.666,0.075,0.904l-5.414,3.085
						C308.714,351.552,308.002,351.533,307.543,351.271z"/>
					<path style="fill:#ACBCC1;" d="M315.971,356.062l-6.077-3.454c-0.46-0.261-0.493-0.666-0.075-0.904l5.414-3.086
						c0.418-0.238,1.13-0.219,1.59,0.042l6.077,3.454c0.46,0.261,0.493,0.666,0.075,0.905l-5.414,3.085
						C317.142,356.342,316.431,356.324,315.971,356.062z"/>
					<path style="fill:#ACBCC1;" d="M324.4,360.853l-6.077-3.454c-0.46-0.261-0.493-0.667-0.075-0.905l14.842-8.457
						c0.418-0.238,1.13-0.22,1.59,0.042l6.077,3.454c0.46,0.262,0.493,0.667,0.075,0.905l-14.842,8.457
						C325.571,361.133,324.859,361.115,324.4,360.853z"/>
					<path style="fill:#ACBCC1;" d="M289.686,351.853l-6.077-3.454c-0.46-0.261-0.493-0.666-0.075-0.905l5.414-3.085
						c0.418-0.239,1.13-0.22,1.59,0.042l6.077,3.454c0.46,0.262,0.493,0.667,0.075,0.905l-5.414,3.085
						C290.858,352.133,290.146,352.114,289.686,351.853z"/>
					<path style="fill:#ACBCC1;" d="M298.115,356.644l-6.077-3.454c-0.46-0.261-0.493-0.666-0.075-0.905l5.414-3.085
						c0.418-0.238,1.13-0.22,1.59,0.042l6.077,3.454c0.46,0.261,0.493,0.666,0.075,0.905l-5.414,3.085
						C299.286,356.924,298.574,356.905,298.115,356.644z"/>
					<path style="fill:#ACBCC1;" d="M306.543,361.434l-6.077-3.454c-0.46-0.261-0.493-0.666-0.075-0.904l5.414-3.085
						c0.418-0.238,1.13-0.22,1.59,0.042l6.077,3.454c0.46,0.262,0.493,0.667,0.075,0.905l-5.414,3.085
						C307.715,361.714,307.003,361.696,306.543,361.434z"/>
					<path style="fill:#ACBCC1;" d="M280.258,357.225l-6.077-3.454c-0.46-0.262-0.493-0.667-0.075-0.905l5.414-3.085
						c0.418-0.238,1.13-0.22,1.59,0.042l6.077,3.454c0.46,0.262,0.493,0.667,0.075,0.905l-5.414,3.085
						C281.43,357.505,280.718,357.486,280.258,357.225z"/>
					<path style="fill:#ACBCC1;" d="M288.687,362.016l-6.077-3.454c-0.46-0.262-0.493-0.666-0.075-0.905l5.414-3.085
						c0.418-0.238,1.13-0.22,1.59,0.042l6.077,3.454c0.46,0.261,0.493,0.666,0.075,0.905l-5.414,3.085
						C289.858,362.296,289.147,362.277,288.687,362.016z"/>
					<path style="fill:#ACBCC1;" d="M297.115,366.807l-6.077-3.454c-0.459-0.261-0.493-0.666-0.075-0.904l5.414-3.085
						c0.418-0.238,1.13-0.22,1.59,0.042l6.077,3.454c0.46,0.261,0.493,0.667,0.075,0.905l-5.414,3.085
						C298.287,367.087,297.575,367.068,297.115,366.807z"/>
					<path style="fill:#ACBCC1;" d="M305.544,371.598l-6.077-3.454c-0.46-0.262-0.493-0.667-0.075-0.905l14.842-8.457
						c0.418-0.238,1.13-0.22,1.59,0.042l6.077,3.454c0.46,0.261,0.493,0.666,0.075,0.904l-14.842,8.457
						C306.715,371.878,306.004,371.859,305.544,371.598z"/>
					<path style="fill:#ACBCC1;" d="M308.334,330.259l-14.506-8.245c-0.459-0.261-0.493-0.666-0.075-0.904l5.415-3.086
						c0.418-0.238,1.13-0.219,1.59,0.042l14.505,8.245c0.46,0.261,0.493,0.666,0.075,0.904l-5.414,3.085
						C309.505,330.539,308.794,330.52,308.334,330.259z"/>
					<path style="fill:#ACBCC1;" d="M183.236,241.315l-7.908-4.495c-0.46-0.261-0.493-0.667-0.075-0.905l5.414-3.085
						c0.418-0.238,1.13-0.22,1.59,0.042l7.908,4.495c0.46,0.261,0.493,0.666,0.075,0.905l-5.414,3.085
						C184.407,241.595,183.695,241.577,183.236,241.315z"/>
					<path style="fill:#ACBCC1;" d="M193.558,247.183l-7.908-4.495c-0.46-0.261-0.493-0.666-0.075-0.904l5.414-3.085
						c0.418-0.239,1.13-0.22,1.59,0.041l7.908,4.495c0.46,0.261,0.493,0.666,0.075,0.904l-5.414,3.085
						C194.73,247.463,194.018,247.444,193.558,247.183z"/>
					<path style="fill:#ACBCC1;" d="M203.881,253.05l-7.908-4.495c-0.46-0.261-0.493-0.666-0.075-0.905l5.414-3.085
						c0.418-0.238,1.13-0.22,1.59,0.042l7.908,4.495c0.46,0.262,0.493,0.667,0.075,0.905l-5.414,3.085
						C205.052,253.33,204.34,253.311,203.881,253.05z"/>
					<path style="fill:#ACBCC1;" d="M214.203,258.917l-7.908-4.495c-0.46-0.261-0.493-0.667-0.075-0.905l5.414-3.085
						c0.418-0.238,1.13-0.22,1.59,0.042l7.908,4.495c0.46,0.262,0.493,0.666,0.075,0.905l-5.414,3.085
						C215.374,259.197,214.663,259.179,214.203,258.917z"/>
					<path style="fill:#ACBCC1;" d="M224.525,264.785l-7.908-4.495c-0.46-0.261-0.493-0.666-0.075-0.904l5.414-3.085
						c0.418-0.238,1.13-0.22,1.59,0.042l7.908,4.495c0.46,0.261,0.493,0.666,0.076,0.905l-5.415,3.085
						C225.697,265.065,224.985,265.046,224.525,264.785z"/>
					<path style="fill:#ACBCC1;" d="M234.847,270.652l-7.908-4.495c-0.46-0.261-0.493-0.666-0.075-0.905l5.414-3.085
						c0.418-0.238,1.13-0.22,1.59,0.042l7.908,4.495c0.46,0.262,0.493,0.667,0.075,0.905l-5.415,3.085
						C236.019,270.932,235.307,270.914,234.847,270.652z"/>
					<path style="fill:#ACBCC1;" d="M245.17,276.52l-7.908-4.495c-0.46-0.262-0.493-0.667-0.075-0.905l5.415-3.085
						c0.418-0.238,1.13-0.22,1.59,0.042l7.908,4.495c0.46,0.262,0.493,0.666,0.075,0.905l-5.414,3.085
						C246.341,276.799,245.629,276.781,245.17,276.52z"/>
					<path style="fill:#ACBCC1;" d="M255.492,282.387l-7.908-4.495c-0.46-0.261-0.493-0.667-0.075-0.905l5.414-3.085
						c0.418-0.238,1.13-0.22,1.59,0.042l7.908,4.495c0.46,0.261,0.493,0.666,0.075,0.904l-5.414,3.086
						C256.664,282.667,255.952,282.648,255.492,282.387z"/>
					<path style="fill:#ACBCC1;" d="M265.815,288.254l-7.908-4.495c-0.46-0.261-0.493-0.666-0.075-0.904l5.414-3.086
						c0.418-0.238,1.13-0.219,1.59,0.042l7.908,4.495c0.46,0.262,0.493,0.667,0.075,0.905l-5.414,3.085
						C266.986,288.534,266.274,288.516,265.815,288.254z"/>
					<path style="fill:#ACBCC1;" d="M276.137,294.122l-7.908-4.495c-0.46-0.261-0.493-0.666-0.075-0.905l5.414-3.085
						c0.418-0.238,1.13-0.22,1.59,0.042l7.908,4.495c0.46,0.262,0.493,0.666,0.075,0.905l-5.414,3.085
						C277.308,294.402,276.597,294.383,276.137,294.122z"/>
					<path style="fill:#ACBCC1;" d="M286.459,299.989l-7.908-4.495c-0.46-0.261-0.493-0.666-0.075-0.905l5.414-3.085
						c0.418-0.238,1.13-0.22,1.59,0.042l7.908,4.495c0.46,0.261,0.493,0.666,0.075,0.904l-5.414,3.086
						C287.63,300.269,286.919,300.25,286.459,299.989z"/>
					<path style="fill:#ACBCC1;" d="M296.781,305.857l-7.908-4.495c-0.46-0.261-0.493-0.666-0.075-0.905l5.414-3.085
						c0.418-0.238,1.13-0.22,1.59,0.042l7.908,4.495c0.46,0.261,0.493,0.666,0.075,0.905l-5.414,3.085
						C297.953,306.137,297.241,306.118,296.781,305.857z"/>
					<path style="fill:#ACBCC1;" d="M307.104,311.724l-7.908-4.495c-0.46-0.262-0.493-0.666-0.075-0.905l5.414-3.085
						c0.418-0.238,1.13-0.22,1.59,0.042l7.908,4.495c0.46,0.261,0.493,0.667,0.075,0.905l-5.414,3.085
						C308.275,312.004,307.564,311.985,307.104,311.724z"/>
					<path style="fill:#ACBCC1;" d="M333.659,326.818l-6.077-3.454c-0.46-0.261-0.493-0.667-0.075-0.905l5.414-3.085
						c0.418-0.238,1.13-0.22,1.59,0.042l6.077,3.454c0.46,0.261,0.493,0.666,0.075,0.905l-5.414,3.085
						C334.83,327.098,334.118,327.079,333.659,326.818z"/>
					<path style="fill:#ACBCC1;" d="M342.087,331.609l-6.077-3.454c-0.46-0.261-0.493-0.666-0.075-0.905l5.414-3.085
						c0.418-0.238,1.13-0.22,1.59,0.042l6.077,3.454c0.46,0.261,0.493,0.666,0.075,0.905l-5.414,3.085
						C343.259,331.889,342.547,331.871,342.087,331.609z"/>
					<path style="fill:#ACBCC1;" d="M350.516,336.4l-6.077-3.454c-0.46-0.261-0.493-0.666-0.075-0.904l5.414-3.085
						c0.418-0.238,1.13-0.22,1.59,0.042l6.077,3.454c0.46,0.262,0.493,0.667,0.076,0.905l-5.414,3.085
						C351.687,336.68,350.976,336.661,350.516,336.4z"/>
					<path style="fill:#ACBCC1;" d="M358.944,341.191l-6.077-3.454c-0.46-0.262-0.493-0.667-0.075-0.905l5.414-3.085
						c0.418-0.238,1.13-0.22,1.59,0.042l6.077,3.454c0.46,0.261,0.493,0.666,0.075,0.904l-5.414,3.085
						C360.116,341.471,359.404,341.452,358.944,341.191z"/>
					<path style="fill:#ACBCC1;" d="M324.023,321.341l-14.505-8.245c-0.46-0.261-0.493-0.667-0.075-0.905l5.414-3.085
						c0.418-0.238,1.13-0.22,1.59,0.042l14.505,8.245c0.46,0.261,0.493,0.666,0.075,0.905l-5.414,3.085
						C325.195,321.621,324.483,321.603,324.023,321.341z"/>
					<path style="fill:#ACBCC1;" d="M162.905,258.326l-12.695-7.216c-0.46-0.261-0.493-0.666-0.075-0.905l5.414-3.085
						c0.418-0.239,1.13-0.22,1.59,0.041l12.695,7.216c0.46,0.261,0.493,0.666,0.075,0.905l-5.415,3.085
						C164.077,258.606,163.365,258.588,162.905,258.326z"/>
					<path style="fill:#ACBCC1;" d="M173.228,264.194l-7.908-4.495c-0.46-0.261-0.493-0.666-0.076-0.904l5.414-3.085
						c0.418-0.238,1.13-0.22,1.59,0.042l7.908,4.495c0.46,0.261,0.493,0.666,0.075,0.904l-5.415,3.085
						C174.399,264.474,173.687,264.455,173.228,264.194z"/>
					<path style="fill:#ACBCC1;" d="M183.55,270.061l-7.908-4.495c-0.46-0.261-0.494-0.666-0.076-0.905l5.415-3.085
						c0.418-0.238,1.13-0.22,1.59,0.042l7.908,4.495c0.459,0.262,0.493,0.667,0.075,0.905l-5.414,3.085
						C184.722,270.341,184.01,270.322,183.55,270.061z"/>
					<path style="fill:#ACBCC1;" d="M193.872,275.928l-7.908-4.495c-0.46-0.261-0.493-0.666-0.075-0.905l5.414-3.085
						c0.418-0.238,1.13-0.22,1.59,0.042l7.908,4.495c0.46,0.261,0.493,0.666,0.075,0.905l-5.414,3.085
						C195.044,276.208,194.332,276.19,193.872,275.928z"/>
					<path style="fill:#ACBCC1;" d="M204.195,281.796l-7.908-4.495c-0.46-0.261-0.493-0.666-0.075-0.905l5.414-3.085
						c0.418-0.238,1.13-0.22,1.59,0.042l7.908,4.495c0.46,0.261,0.493,0.666,0.075,0.905l-5.414,3.085
						C205.366,282.076,204.654,282.057,204.195,281.796z"/>
					<path style="fill:#ACBCC1;" d="M214.517,287.663l-7.908-4.495c-0.46-0.261-0.493-0.666-0.075-0.905l5.414-3.085
						c0.418-0.238,1.13-0.22,1.59,0.042l7.908,4.495c0.46,0.261,0.493,0.667,0.075,0.905l-5.414,3.085
						C215.688,287.943,214.977,287.924,214.517,287.663z"/>
					<path style="fill:#ACBCC1;" d="M224.839,293.53l-7.908-4.495c-0.46-0.262-0.493-0.667-0.075-0.905l5.414-3.085
						c0.418-0.238,1.13-0.22,1.59,0.042l7.908,4.495c0.46,0.261,0.493,0.666,0.075,0.905l-5.414,3.085
						C226.011,293.81,225.299,293.792,224.839,293.53z"/>
					<path style="fill:#ACBCC1;" d="M235.162,299.398l-7.908-4.495c-0.46-0.261-0.493-0.666-0.075-0.904l5.414-3.085
						c0.418-0.238,1.13-0.22,1.59,0.042l7.908,4.495c0.46,0.261,0.493,0.666,0.075,0.904l-5.415,3.085
						C236.333,299.678,235.621,299.659,235.162,299.398z"/>
					<path style="fill:#ACBCC1;" d="M245.484,305.265l-7.908-4.495c-0.46-0.261-0.494-0.666-0.076-0.904l5.414-3.086
						c0.418-0.238,1.13-0.219,1.59,0.042l7.908,4.495c0.46,0.262,0.493,0.667,0.075,0.905l-5.415,3.085
						C246.656,305.545,245.944,305.527,245.484,305.265z"/>
					<path style="fill:#ACBCC1;" d="M255.806,311.133l-7.908-4.495c-0.46-0.262-0.493-0.666-0.075-0.905l5.415-3.085
						c0.418-0.238,1.13-0.22,1.59,0.042l7.908,4.495c0.459,0.262,0.493,0.666,0.075,0.905l-5.414,3.085
						C256.978,311.413,256.266,311.394,255.806,311.133z"/>
					<path style="fill:#ACBCC1;" d="M266.129,317l-7.908-4.495c-0.46-0.262-0.493-0.667-0.075-0.905l5.414-3.085
						c0.418-0.238,1.13-0.22,1.59,0.041l7.908,4.495c0.46,0.261,0.493,0.666,0.075,0.905l-5.414,3.086
						C267.3,317.28,266.588,317.261,266.129,317z"/>
					<path style="fill:#ACBCC1;" d="M276.451,322.867l-7.908-4.495c-0.46-0.261-0.493-0.666-0.075-0.904l5.414-3.085
						c0.418-0.238,1.13-0.22,1.59,0.042l7.908,4.495c0.46,0.261,0.493,0.666,0.075,0.904l-5.414,3.085
						C277.622,323.147,276.911,323.129,276.451,322.867z"/>
					<path style="fill:#ACBCC1;" d="M286.773,328.735l-7.908-4.495c-0.46-0.262-0.493-0.666-0.075-0.905l5.414-3.085
						c0.418-0.238,1.13-0.22,1.59,0.042l7.908,4.495c0.46,0.262,0.493,0.667,0.075,0.905l-5.414,3.085
						C287.945,329.015,287.233,328.996,286.773,328.735z"/>
					<path style="fill:#ACBCC1;" d="M298.906,335.631l-9.719-5.524c-0.46-0.261-0.493-0.667-0.075-0.905l5.414-3.085
						c0.418-0.238,1.13-0.22,1.59,0.042l9.719,5.524c0.46,0.261,0.493,0.666,0.075,0.904l-5.414,3.085
						C300.078,335.911,299.366,335.892,298.906,335.631z"/>
					<path style="fill:#ACBCC1;" d="M156.263,265.238l-15.65-8.896c-0.46-0.261-0.493-0.666-0.075-0.904l5.414-3.085
						c0.418-0.239,1.13-0.22,1.59,0.041l15.65,8.896c0.46,0.261,0.493,0.666,0.075,0.905l-5.414,3.085
						C157.434,265.518,156.722,265.5,156.263,265.238z"/>
					<path style="fill:#ACBCC1;" d="M166.585,271.106l-7.908-4.495c-0.46-0.261-0.493-0.666-0.075-0.905l5.414-3.085
						c0.418-0.238,1.13-0.22,1.59,0.042l7.908,4.495c0.46,0.261,0.493,0.666,0.075,0.904l-5.414,3.085
						C167.756,271.386,167.045,271.367,166.585,271.106z"/>
					<path style="fill:#ACBCC1;" d="M176.907,276.973l-7.908-4.495c-0.46-0.261-0.493-0.666-0.075-0.905l5.414-3.085
						c0.418-0.238,1.13-0.22,1.59,0.042l7.908,4.495c0.46,0.261,0.493,0.667,0.075,0.905l-5.415,3.085
						C178.079,277.253,177.367,277.234,176.907,276.973z"/>
					<path style="fill:#ACBCC1;" d="M187.229,282.841l-7.908-4.495c-0.46-0.261-0.493-0.667-0.075-0.905l5.414-3.085
						c0.418-0.238,1.13-0.22,1.59,0.042l7.908,4.495c0.46,0.261,0.493,0.666,0.075,0.905l-5.415,3.085
						C188.401,283.121,187.689,283.102,187.229,282.841z"/>
					<path style="fill:#ACBCC1;" d="M197.552,288.708l-7.908-4.495c-0.46-0.261-0.493-0.666-0.075-0.904l5.415-3.085
						c0.418-0.238,1.13-0.22,1.59,0.042l7.908,4.495c0.459,0.261,0.493,0.666,0.075,0.905l-5.414,3.085
						C198.723,288.988,198.012,288.969,197.552,288.708z"/>
					<path style="fill:#ACBCC1;" d="M207.874,294.575l-7.908-4.495c-0.46-0.261-0.493-0.666-0.075-0.905l5.414-3.085
						c0.418-0.238,1.13-0.22,1.59,0.042l7.908,4.495c0.46,0.262,0.493,0.667,0.075,0.905l-5.414,3.085
						C209.046,294.855,208.334,294.837,207.874,294.575z"/>
					<path style="fill:#ACBCC1;" d="M218.197,300.443l-7.908-4.495c-0.46-0.261-0.493-0.667-0.075-0.905l5.414-3.085
						c0.418-0.238,1.13-0.22,1.59,0.042l7.908,4.495c0.46,0.261,0.493,0.666,0.075,0.905l-5.414,3.085
						C219.368,300.723,218.656,300.704,218.197,300.443z"/>
					<path style="fill:#ACBCC1;" d="M228.519,306.31l-7.908-4.495c-0.46-0.261-0.493-0.666-0.075-0.905l5.414-3.085
						c0.418-0.239,1.13-0.22,1.59,0.041l7.908,4.495c0.46,0.261,0.493,0.666,0.075,0.905l-5.414,3.085
						C229.69,306.59,228.979,306.571,228.519,306.31z"/>
					<path style="fill:#ACBCC1;" d="M238.841,312.177l-7.908-4.495c-0.46-0.261-0.493-0.666-0.075-0.904l5.414-3.086
						c0.418-0.238,1.13-0.219,1.59,0.042l7.908,4.495c0.46,0.262,0.493,0.667,0.075,0.905l-5.414,3.085
						C240.012,312.457,239.301,312.439,238.841,312.177z"/>
					<path style="fill:#ACBCC1;" d="M249.163,318.045l-7.908-4.495c-0.46-0.262-0.493-0.666-0.075-0.905l5.414-3.085
						c0.418-0.238,1.13-0.22,1.59,0.042l7.908,4.495c0.46,0.261,0.493,0.666,0.075,0.905l-5.415,3.085
						C250.335,318.325,249.623,318.306,249.163,318.045z"/>
					<path style="fill:#ACBCC1;" d="M259.486,323.912l-7.908-4.495c-0.46-0.262-0.494-0.667-0.075-0.905l5.414-3.085
						c0.418-0.238,1.13-0.22,1.59,0.042l7.908,4.495c0.46,0.261,0.493,0.666,0.075,0.905l-5.415,3.085
						C260.657,324.192,259.946,324.173,259.486,323.912z"/>
					<path style="fill:#ACBCC1;" d="M269.808,329.78l-7.908-4.495c-0.46-0.261-0.493-0.666-0.075-0.904l5.415-3.085
						c0.418-0.239,1.13-0.22,1.59,0.041l7.908,4.495c0.459,0.261,0.493,0.666,0.075,0.905l-5.414,3.085
						C270.98,330.06,270.268,330.041,269.808,329.78z"/>
					<path style="fill:#ACBCC1;" d="M280.13,335.647l-7.908-4.495c-0.46-0.262-0.493-0.666-0.075-0.905l5.414-3.085
						c0.418-0.238,1.13-0.22,1.59,0.042l7.908,4.495c0.46,0.262,0.493,0.667,0.075,0.905l-5.414,3.085
						C281.302,335.927,280.59,335.908,280.13,335.647z"/>
					<path style="fill:#ACBCC1;" d="M289.516,340.982l-17.294-9.83c-0.46-0.262-0.493-0.666-0.075-0.905l5.414-3.085
						c0.418-0.238,1.13-0.22,1.59,0.042l17.294,9.83c0.46,0.262,0.493,0.666,0.075,0.905l-5.414,3.085
						C290.688,341.262,289.976,341.243,289.516,340.982z"/>
					<path style="fill:#ACBCC1;" d="M149.62,272.151l-18.397-10.457c-0.46-0.262-0.493-0.667-0.075-0.905l5.414-3.085
						c0.418-0.238,1.13-0.22,1.59,0.042l18.397,10.457c0.46,0.261,0.493,0.666,0.075,0.905l-5.414,3.085
						C150.791,272.431,150.079,272.412,149.62,272.151z"/>
					<path style="fill:#ACBCC1;" d="M159.942,278.018l-7.908-4.495c-0.46-0.261-0.493-0.666-0.075-0.905l5.414-3.085
						c0.418-0.238,1.13-0.22,1.59,0.042l7.908,4.495c0.46,0.261,0.493,0.666,0.075,0.904l-5.414,3.085
						C161.113,278.298,160.402,278.279,159.942,278.018z"/>
					<path style="fill:#ACBCC1;" d="M170.264,283.885l-7.908-4.495c-0.46-0.262-0.493-0.666-0.075-0.905l5.414-3.085
						c0.418-0.238,1.13-0.22,1.59,0.042l7.908,4.495c0.46,0.262,0.493,0.667,0.075,0.905l-5.414,3.085
						C171.436,284.165,170.724,284.147,170.264,283.885z"/>
					<path style="fill:#ACBCC1;" d="M180.587,289.753l-7.908-4.495c-0.46-0.261-0.493-0.667-0.075-0.905l5.414-3.085
						c0.418-0.238,1.13-0.22,1.59,0.042l7.908,4.495c0.46,0.261,0.493,0.666,0.075,0.905l-5.414,3.085
						C181.758,290.033,181.046,290.014,180.587,289.753z"/>
					<path style="fill:#ACBCC1;" d="M190.909,295.62l-7.908-4.495c-0.46-0.261-0.493-0.666-0.075-0.904l5.414-3.085
						c0.418-0.238,1.13-0.22,1.59,0.042l7.908,4.495c0.46,0.261,0.493,0.666,0.075,0.904l-5.415,3.085
						C192.081,295.9,191.369,295.881,190.909,295.62z"/>
					<path style="fill:#ACBCC1;" d="M201.231,301.487l-7.908-4.495c-0.46-0.261-0.493-0.666-0.075-0.905l5.414-3.085
						c0.418-0.238,1.13-0.22,1.59,0.042l7.908,4.495c0.46,0.262,0.493,0.667,0.075,0.905l-5.415,3.085
						C202.403,301.767,201.691,301.749,201.231,301.487z"/>
					<path style="fill:#ACBCC1;" d="M211.554,307.355l-7.908-4.495c-0.46-0.261-0.493-0.666-0.075-0.905l5.415-3.085
						c0.418-0.238,1.13-0.22,1.59,0.042l7.908,4.495c0.46,0.261,0.493,0.666,0.075,0.905l-5.414,3.085
						C212.725,307.635,212.013,307.616,211.554,307.355z"/>
					<path style="fill:#ACBCC1;" d="M221.876,313.222l-7.908-4.495c-0.46-0.261-0.493-0.666-0.075-0.905l5.414-3.085
						c0.418-0.238,1.13-0.22,1.59,0.042l7.908,4.495c0.46,0.261,0.493,0.666,0.075,0.905l-5.414,3.085
						C223.047,313.502,222.336,313.483,221.876,313.222z"/>
					<path style="fill:#ACBCC1;" d="M232.198,319.09l-7.908-4.495c-0.46-0.261-0.493-0.666-0.075-0.905l5.414-3.085
						c0.418-0.238,1.13-0.219,1.59,0.042l7.908,4.495c0.46,0.261,0.493,0.667,0.075,0.905l-5.414,3.085
						C233.37,319.369,232.658,319.351,232.198,319.09z"/>
					<path style="fill:#ACBCC1;" d="M242.521,324.957l-7.908-4.495c-0.46-0.261-0.493-0.666-0.075-0.905l5.414-3.085
						c0.418-0.238,1.13-0.22,1.59,0.042l7.908,4.495c0.46,0.261,0.493,0.666,0.075,0.905l-5.414,3.085
						C243.692,325.237,242.98,325.218,242.521,324.957z"/>
					<path style="fill:#ACBCC1;" d="M252.843,330.824l-7.908-4.495c-0.46-0.262-0.493-0.667-0.075-0.905l5.414-3.085
						c0.418-0.238,1.13-0.22,1.59,0.042l7.908,4.495c0.46,0.261,0.493,0.666,0.075,0.904l-5.414,3.086
						C254.014,331.104,253.303,331.085,252.843,330.824z"/>
					<path style="fill:#ACBCC1;" d="M263.165,336.692l-7.908-4.495c-0.46-0.261-0.493-0.666-0.075-0.905l5.414-3.085
						c0.418-0.239,1.13-0.22,1.59,0.041l7.908,4.495c0.46,0.262,0.493,0.667,0.075,0.905l-5.415,3.085
						C264.337,336.972,263.625,336.953,263.165,336.692z"/>
					<path style="fill:#ACBCC1;" d="M280.126,346.333l-14.547-8.269c-0.46-0.262-0.493-0.666-0.075-0.905l5.414-3.085
						c0.418-0.238,1.13-0.22,1.59,0.042l14.547,8.269c0.46,0.261,0.493,0.666,0.075,0.905l-5.414,3.085
						C281.298,346.613,280.586,346.594,280.126,346.333z"/>
					<path style="fill:#ACBCC1;" d="M142.977,279.063l-21.144-12.019c-0.46-0.261-0.493-0.666-0.075-0.905l5.415-3.085
						c0.418-0.238,1.13-0.22,1.59,0.042l21.144,12.019c0.46,0.261,0.494,0.666,0.076,0.905l-5.415,3.085
						C144.148,279.343,143.437,279.324,142.977,279.063z"/>
					<path style="fill:#ACBCC1;" d="M153.299,284.93l-7.908-4.495c-0.46-0.261-0.493-0.666-0.075-0.904l5.415-3.085
						c0.418-0.238,1.13-0.22,1.59,0.042l7.908,4.495c0.46,0.261,0.493,0.666,0.075,0.904l-5.414,3.085
						C154.471,285.21,153.759,285.191,153.299,284.93z"/>
					<path style="fill:#ACBCC1;" d="M163.621,290.797l-7.908-4.495c-0.46-0.261-0.493-0.666-0.075-0.905l5.414-3.085
						c0.418-0.238,1.13-0.22,1.59,0.042l7.908,4.495c0.46,0.262,0.493,0.667,0.075,0.905l-5.414,3.085
						C164.793,291.077,164.081,291.059,163.621,290.797z"/>
					<path style="fill:#ACBCC1;" d="M215.233,320.134l-49.424-27.723c-0.46-0.261-0.493-0.666-0.075-0.904l5.415-3.085
						c0.418-0.238,1.13-0.22,1.59,0.042l49.424,27.723c0.46,0.261,0.493,0.666,0.076,0.904l-5.415,3.085
						C216.405,320.414,215.693,320.395,215.233,320.134z"/>
					<path style="fill:#ACBCC1;" d="M225.555,326.002l-7.908-4.495c-0.46-0.261-0.493-0.666-0.075-0.905l5.415-3.086
						c0.418-0.238,1.13-0.22,1.59,0.042l7.908,4.495c0.46,0.262,0.493,0.667,0.075,0.905l-5.414,3.085
						C226.727,326.281,226.015,326.263,225.555,326.002z"/>
					<path style="fill:#ACBCC1;" d="M235.878,331.869l-7.908-4.495c-0.46-0.261-0.493-0.666-0.075-0.905l5.414-3.085
						c0.418-0.238,1.13-0.22,1.59,0.042l7.908,4.495c0.46,0.262,0.493,0.666,0.075,0.905l-5.414,3.085
						C237.049,332.149,236.337,332.13,235.878,331.869z"/>
					<path style="fill:#ACBCC1;" d="M246.2,337.736l-7.908-4.495c-0.46-0.262-0.493-0.667-0.075-0.905l5.414-3.085
						c0.418-0.238,1.13-0.22,1.59,0.041l7.908,4.495c0.46,0.261,0.493,0.666,0.075,0.905l-5.414,3.086
						C247.371,338.016,246.66,337.997,246.2,337.736z"/>
					<path style="fill:#ACBCC1;" d="M256.522,343.604l-7.908-4.495c-0.46-0.261-0.493-0.666-0.075-0.904l5.414-3.086
						c0.418-0.238,1.13-0.219,1.59,0.042l7.908,4.495c0.46,0.262,0.493,0.667,0.075,0.905l-5.414,3.085
						C257.694,343.884,256.982,343.865,256.522,343.604z"/>
					<path style="fill:#ACBCC1;" d="M270.736,351.683l-11.8-6.707c-0.46-0.261-0.493-0.666-0.075-0.905l5.414-3.085
						c0.418-0.238,1.13-0.22,1.59,0.042l11.8,6.707c0.46,0.261,0.493,0.666,0.075,0.905l-5.415,3.085
						C271.908,351.963,271.196,351.945,270.736,351.683z"/>
					<path style="fill:#ACBCC1;" d="M197.813,357.605l-48.615-27.633c-2.149-1.222-2.306-3.115-0.351-4.229l27.602-15.728
						c1.955-1.114,5.282-1.027,7.432,0.195l48.615,27.633c2.149,1.222,2.307,3.115,0.352,4.23l-27.602,15.728
						C203.29,358.914,199.963,358.827,197.813,357.605z"/>
					<path style="fill:#ACBCC1;" d="M206.658,234.867l-13.86-7.878c-0.897-0.509-2.285-0.546-3.1-0.081l0,0
						c-0.815,0.464-0.75,1.254,0.147,1.764l13.86,7.878c0.897,0.51,2.285,0.546,3.1,0.081l0,0
						C207.62,236.166,207.555,235.376,206.658,234.867z"/>
				</g>
			</g>
			<polygon style="opacity:0.66;fill:#8EB1BC;" points="237.339,82.7 293.112,114.391 346.581,284.242 290.219,252.265 			"/>
			<polygon style="opacity:0.66;fill:#8EB1BC;" points="307.711,122.593 321.248,130.378 374.533,300.124 360.591,292.158 			"/>
		</g>
		<g>
			<g style="enable-background:new    ;">
				<path style="fill:#EDEBEC;" d="M287.444,138.266c-22.899-13.221-41.596-0.095-41.596,23.704
					c-0.075,26.312,18.427,58.358,41.325,71.578c22.899,13.221,41.521,2.608,41.595-23.704
					C328.844,183.532,310.343,151.487,287.444,138.266z"/>
				<path style="fill:#D33718;" d="M291.507,217.958c-6.368-3.676-12.255-9.387-17.087-16.093l-4.982,2.895
					c4.831,6.706,10.719,12.416,17.086,16.093c8.274,4.777,15.771,5.22,21.185,2.074l4.982-2.895
					C307.278,223.177,299.781,222.735,291.507,217.958z"/>
				<path style="fill:#C12B48;" d="M270.51,147.441l-4.982,2.895c-5.346,3.107-8.661,9.713-8.688,19.102
					c-0.021,7.317,1.964,15.246,5.351,22.775l4.982-2.895c-3.387-7.529-5.372-15.458-5.351-22.775
					C261.85,157.155,265.164,150.548,270.51,147.441z"/>
				<g>
					<path style="fill:#D52D46;" d="M286.757,138.991c22.899,13.221,41.4,45.266,41.325,71.578
						c-0.075,26.312-18.697,36.924-41.595,23.704c-22.899-13.22-41.4-45.266-41.325-71.578
						C245.236,136.383,263.858,125.771,286.757,138.991z M256.841,169.438c-0.021,7.317,1.964,15.246,5.351,22.775l41.609-23.712
						c-4.827-6.703-10.719-12.416-17.082-16.09C270.27,142.915,256.895,150.542,256.841,169.438 M286.525,220.853
						c16.445,9.495,29.82,1.868,29.873-17.029c0.021-7.317-1.964-15.246-5.351-22.775l-41.609,23.712
						C274.27,211.466,280.157,217.176,286.525,220.853"/>
				</g>
				<g>
					<polygon style="fill:#FF4F19;" points="262.192,192.214 267.174,189.318 308.783,165.607 303.801,168.502 					"/>
				</g>
				<path style="fill:#C12B48;" d="M291.739,136.096c-11.523-6.653-21.963-7.27-29.501-2.889l-4.982,2.895
					c7.539-4.381,17.978-3.763,29.501,2.89c22.899,13.221,41.4,45.266,41.325,71.578c-0.037,13.072-4.652,22.269-12.094,26.594
					l4.982-2.895c7.442-4.325,12.057-13.522,12.094-26.594C333.139,181.362,314.638,149.317,291.739,136.096z"/>
			</g>
		</g>
		<g>
			<g>
				<g>
					<polygon style="fill:#000000d5;" points="150.363,198.577 158.386,193.467 158.503,164.704 150.477,169.814 					"/>
				</g>
				<path style="fill:#000000d5;" d="M102.449,48.216c4.331-2.517,10.338-2.16,16.954,1.664l75.639,43.666
					c13.17,7.599,23.807,26.026,23.762,41.158l-0.102,37.13c-0.029,7.515-2.677,12.805-6.959,15.291
					c-3.974,2.313-4.589,2.723-8.569,5.037c4.277-2.485,6.931-7.775,6.954-15.292l0.106-37.128
					c0.043-15.131-10.597-33.554-23.766-41.16l-75.637-43.67c-6.62-3.82-12.616-4.176-16.954-1.656L102.449,48.216z"/>
				<g>
					<path style="fill:#434242;" d="M110.831,54.913c-13.157-7.596-23.863-1.494-23.91,13.641l-0.105,37.123
						c-0.041,15.132,10.598,33.559,23.755,41.157l4.604,2.6l35.189,49.143l0.114-28.763l35.729,20.685
						c13.169,7.605,23.875,1.506,23.921-13.628l0.106-37.128c0.043-15.131-10.597-33.554-23.766-41.16L110.831,54.913z"/>
				</g>
			</g>
			<g>
				
					<ellipse transform="matrix(0.8646 -0.5025 0.5025 0.8646 -41.2168 90.0511)" style="fill:#D52D46;" cx="146.481" cy="121.503" rx="24.531" ry="42.351"/>
				<g>
					<path style="fill:#EDEBEC;" d="M146.166,100.599c1.422,0.821,2.573,2.815,2.569,4.449l-0.047,16.673
						c-0.001,0.207,0.144,0.457,0.324,0.561c0.174,0.101,0.32,0.018,0.32-0.189l0.033-11.485c0.005-1.634,1.163-2.294,2.591-1.47
						c1.422,0.821,2.573,2.815,2.569,4.449l-0.047,16.406c0.005,0.303,0.004,0.577,0.004,0.804c0,0.107-0.001,0.22-0.001,0.32
						c0.377,0.151,0.726,0.059,0.942-0.244c1.144-1.631,2.494-2.187,3.425-2.378c1.012-0.197,2.308,0.056,3.382,0.676
						c0.58,0.335,1.044,0.897,1.321,1.591c0.41,1.032,0.279,2.078,0.139,2.305c-0.28,0.426-0.625,0.902-1.189,1.097
						c-0.617,0.225-1.241,0.814-1.801,1.706c-0.251,0.396-1.949,2.482-3.979,4.958c-0.811,0.988-1.493,1.823-1.744,2.146
						c-1.967,2.892-5.939,3.125-10.355,0.574c-5.328-3.076-10.855-7.67-11.453-18.389l0.057-20.154
						c0.004-1.434,1.023-2.008,2.265-1.291c1.254,0.724,2.26,2.467,2.256,3.901l-0.026,9.263c-0.001,0.2,0.144,0.451,0.324,0.555
						c0.174,0.101,0.32,0.018,0.32-0.183l0.042-14.826c0.004-1.427,1.023-2.001,2.265-1.284c1.248,0.72,2.254,2.464,2.25,3.891
						l-0.038,13.338c-0.001,0.207,0.144,0.457,0.324,0.561c0.174,0.101,0.32,0.018,0.32-0.189l0.047-16.673
						C143.579,100.435,144.738,99.774,146.166,100.599z"/>
				</g>
			</g>
		</g>
		<g>
			<g id="XMLID_480_">
				<g id="XMLID_481_">
					<path id="XMLID_774_" style="fill:#6EB8E3;" d="M191.504,229.094L95.989,173.81c-1.811-1.045-3.45-1.141-4.635-0.452
						l-3.768,2.189c1.185-0.689,2.825-0.593,4.635,0.453l95.515,55.283c3.635,2.118,6.543,7.196,6.532,11.353l-0.201,50.254
						c-0.006,2.077-0.733,3.539-1.91,4.223l3.768-2.19c1.177-0.684,1.904-2.146,1.91-4.223l0.201-50.254
						C198.048,236.289,195.139,231.212,191.504,229.094z"/>
					<path id="XMLID_773_" style="fill: #434242;" d="M92.221,176l95.515,55.284c3.635,2.118,6.543,7.196,6.532,11.353l-0.201,50.254
						c-0.012,4.165-2.923,5.855-6.543,3.765l-95.515-55.283c-3.618-2.108-6.544-7.196-6.532-11.372l0.201-50.254
						C85.69,175.6,88.617,173.92,92.221,176z"/>
				</g>
			</g>
			<g>
				<g style="enable-background:new    ;">
					<g>
						<path style="fill:#5EA7CC;" d="M92.076,210.896l4.51-2.621c-0.088,0.051-0.17,0.12-0.246,0.205
							c-0.271,0.309-0.412,0.956-0.415,1.952c-0.004,1.235,0.158,2.174,0.483,2.818c0.321,0.642,0.778,1.136,1.371,1.478
							c0.547,0.316,0.964,0.389,1.258,0.218l-4.51,2.621c-0.294,0.171-0.71,0.098-1.258-0.218c-0.592-0.342-1.049-0.836-1.371-1.478
							c-0.325-0.644-0.486-1.583-0.483-2.818c0.003-0.995,0.144-1.643,0.415-1.952C91.905,211.016,91.987,210.947,92.076,210.896z"
							/>
					</g>
					<g>
						<polygon style="fill:#6EB8E3;" points="95.208,216.305 99.717,213.684 102.333,216.102 97.824,218.723 						"/>
					</g>
					<g>
						<path style="fill:#6EB8E3;" d="M101.183,217.973l-4.51,2.621c0.111-0.064,0.216-0.142,0.315-0.232
							c0.377-0.351,0.657-0.895,0.835-1.638l4.51-2.621c-0.178,0.743-0.458,1.287-0.835,1.638
							C101.399,217.831,101.294,217.908,101.183,217.973z"/>
					</g>
					<g>
						<path style="fill:#6EB8E3;" d="M89.708,207.844l4.51-2.621c0.857-0.493,2.063-0.295,3.62,0.604l-4.51,2.621
							C91.771,207.55,90.564,207.351,89.708,207.844z"/>
					</g>
					<g>
						<path style="fill:#FCF5F9;" d="M93.327,208.448c1.217,0.703,2.177,1.543,2.869,2.508c0.697,0.971,1.213,2.139,1.549,3.509
							l-2.645-0.85c-0.089-0.39-0.186-0.695-0.288-0.909c-0.167-0.36-0.37-0.684-0.611-0.964c-0.241-0.28-0.51-0.506-0.808-0.678
							c-0.678-0.391-1.198-0.376-1.563,0.038c-0.271,0.309-0.412,0.956-0.415,1.952c-0.003,1.235,0.158,2.174,0.483,2.818
							c0.322,0.642,0.778,1.136,1.371,1.478c0.572,0.33,1.001,0.395,1.297,0.194c0.295-0.201,0.509-0.613,0.642-1.238l2.616,2.418
							c-0.178,0.743-0.458,1.287-0.835,1.638c-0.382,0.349-0.853,0.505-1.413,0.468s-1.276-0.304-2.142-0.804
							c-1.054-0.609-1.911-1.278-2.576-2.014c-0.665-0.736-1.239-1.684-1.719-2.85c-0.484-1.163-0.721-2.434-0.717-3.814
							c0.005-1.84,0.434-3.008,1.287-3.503C90.564,207.351,91.771,207.55,93.327,208.448z"/>
					</g>
					<g>
						<path style="fill:#6EB8E3;" d="M93.327,208.448l4.51-2.621c1.217,0.703,2.177,1.543,2.869,2.508
							c0.697,0.971,1.213,2.139,1.549,3.509l-4.51,2.621c-0.336-1.369-0.852-2.537-1.549-3.509
							C95.504,209.992,94.545,209.151,93.327,208.448z"/>
					</g>
				</g>
				<g style="enable-background:new    ;">
					<g>
						<polygon style="fill:#6EB8E3;" points="102.262,222.192 106.771,219.572 111.437,222.265 106.927,224.886 						"/>
					</g>
					<g>
						<polygon style="fill:#5EA7CC;" points="106.927,224.886 111.437,222.265 111.429,225.002 106.919,227.622 						"/>
					</g>
					<g>
						<polygon style="fill:#FCF5F9;" points="102.285,213.813 102.262,222.192 106.927,224.886 106.919,227.622 99.268,223.205 
							99.299,212.089 						"/>
					</g>
					<g>
						<polygon style="fill:#5EA7CC;" points="102.285,213.813 106.795,211.192 106.771,219.572 102.262,222.192 						"/>
					</g>
					<g>
						<polygon style="fill:#6EB8E3;" points="99.299,212.089 103.809,209.468 106.795,211.192 102.285,213.813 						"/>
					</g>
				</g>
				<g style="enable-background:new    ;">
					<g>
						<polygon style="fill:#FCF5F9;" points="111.424,219.089 111.392,230.205 108.398,228.476 108.43,217.36 						"/>
					</g>
					<g>
						<polygon style="fill:#5EA7CC;" points="111.424,219.089 115.934,216.469 115.902,227.584 111.392,230.205 						"/>
					</g>
					<g>
						<polygon style="fill:#6EB8E3;" points="108.43,217.36 112.939,214.74 115.934,216.469 111.424,219.089 						"/>
					</g>
				</g>
				<g style="enable-background:new    ;">
					<g>
						<path style="fill:#5EA7CC;" d="M116.863,225.202l4.51-2.621c-0.089,0.052-0.172,0.122-0.247,0.209
							c-0.275,0.307-0.412,0.956-0.415,1.952c-0.004,1.235,0.157,2.174,0.483,2.818c0.321,0.642,0.778,1.136,1.367,1.475
							c0.548,0.316,0.969,0.391,1.262,0.22l-4.51,2.621c-0.294,0.171-0.715,0.096-1.262-0.22c-0.588-0.34-1.045-0.834-1.367-1.475
							c-0.326-0.644-0.487-1.583-0.483-2.818c0.003-0.995,0.14-1.645,0.415-1.952C116.691,225.323,116.773,225.254,116.863,225.202z
							"/>
					</g>
					<g>
						<polygon style="fill:#6EB8E3;" points="119.992,230.614 124.502,227.993 127.118,230.411 122.609,233.032 						"/>
					</g>
					<g>
						<path style="fill:#6EB8E3;" d="M125.96,232.285l-4.51,2.621c0.113-0.066,0.219-0.145,0.319-0.238
							c0.382-0.349,0.661-0.892,0.84-1.636l4.51-2.621c-0.178,0.743-0.458,1.287-0.839,1.636
							C126.179,232.14,126.072,232.219,125.96,232.285z"/>
					</g>
					<g>
						<path style="fill:#6EB8E3;" d="M114.492,222.154l4.51-2.621c0.857-0.493,2.059-0.297,3.616,0.602l-4.51,2.621
							C116.551,221.857,115.349,221.661,114.492,222.154z"/>
					</g>
					<g>
						<path style="fill:#FCF5F9;" d="M118.108,222.755c1.221,0.705,2.177,1.543,2.873,2.51c0.697,0.971,1.209,2.137,1.545,3.506
							l-2.641-0.848c-0.089-0.39-0.186-0.695-0.288-0.909c-0.167-0.36-0.37-0.684-0.611-0.964c-0.241-0.28-0.51-0.506-0.812-0.681
							c-0.678-0.391-1.198-0.376-1.559,0.04c-0.275,0.307-0.412,0.956-0.415,1.952c-0.004,1.235,0.158,2.174,0.483,2.818
							c0.321,0.642,0.778,1.136,1.367,1.475c0.572,0.33,1.005,0.397,1.301,0.196c0.291-0.203,0.505-0.616,0.642-1.238l2.616,2.418
							c-0.178,0.744-0.458,1.287-0.84,1.636c-0.377,0.351-0.848,0.507-1.409,0.47c-0.565-0.039-1.276-0.304-2.146-0.806
							c-1.05-0.606-1.907-1.275-2.572-2.012c-0.669-0.739-1.239-1.684-1.723-2.852c-0.48-1.161-0.717-2.431-0.714-3.811
							c0.005-1.84,0.434-3.008,1.287-3.503C115.349,221.661,116.551,221.857,118.108,222.755z"/>
					</g>
					<g>
						<path style="fill:#6EB8E3;" d="M118.108,222.755l4.51-2.621c1.222,0.705,2.177,1.543,2.874,2.51
							c0.697,0.971,1.209,2.137,1.545,3.506l-4.51,2.621c-0.336-1.369-0.848-2.535-1.545-3.506
							C120.285,224.299,119.329,223.461,118.108,222.755z"/>
					</g>
				</g>
				<g style="enable-background:new    ;">
					<g>
						<polygon style="fill:#5EA7CC;" points="127.059,236.532 131.568,233.912 131.561,236.625 127.051,239.246 						"/>
					</g>
					<g>
						<polygon style="fill:#6EB8E3;" points="128.608,235.565 133.118,232.944 131.568,233.912 127.059,236.532 						"/>
					</g>
					<g>
						<polygon style="fill:#5EA7CC;" points="130.649,234.393 135.159,231.772 138.828,240.821 134.319,243.441 						"/>
					</g>
					<g>
						<polygon style="fill:#6EB8E3;" points="124.096,226.406 128.606,223.785 131.592,225.509 127.083,228.13 						"/>
					</g>
					<g>
						<polygon style="fill:#5EA7CC;" points="127.083,228.13 131.592,225.509 131.58,229.71 127.071,232.331 						"/>
					</g>
					<g>
						<polygon style="fill:#6EB8E3;" points="130.216,229.939 134.726,227.318 138.7,229.613 134.191,232.234 						"/>
					</g>
					<g>
						<polygon style="fill:#6EB8E3;" points="134.191,232.234 138.7,229.613 135.159,231.772 130.649,234.393 						"/>
					</g>
					<g>
						<polygon style="fill:#FCF5F9;" points="134.191,232.234 130.649,234.393 134.319,243.441 130.634,241.314 128.608,235.565 
							127.059,236.532 127.051,239.246 124.065,237.521 124.096,226.406 127.083,228.13 127.071,232.331 130.216,229.939 						"/>
					</g>
				</g>
				<g style="enable-background:new    ;">
					<g>
						<polygon style="fill:#5EA7CC;" points="142.829,243.85 147.338,241.23 147.325,245.727 142.816,248.347 						"/>
					</g>
					<g>
						<polygon style="fill:#6EB8E3;" points="142.836,241.118 147.346,238.498 150.61,240.382 146.1,243.003 						"/>
					</g>
					<g>
						<polygon style="fill:#6EB8E3;" points="139.857,235.505 144.367,232.884 147.357,234.611 142.847,237.232 						"/>
					</g>
					<g>
						<polygon style="fill:#5EA7CC;" points="142.847,237.232 147.357,234.611 147.346,238.498 142.836,241.118 						"/>
					</g>
					<g>
						<polygon style="fill:#FCF5F9;" points="149.114,240.85 149.082,251.965 146.08,250.232 146.093,245.735 142.829,243.85 
							142.816,248.347 139.825,246.621 139.857,235.505 142.847,237.232 142.836,241.118 146.1,243.003 146.111,239.116 						"/>
					</g>
					<g>
						<polygon style="fill:#5EA7CC;" points="149.114,240.85 153.624,238.229 153.592,249.345 149.082,251.965 						"/>
					</g>
					<g>
						<polygon style="fill:#6EB8E3;" points="146.111,239.116 150.621,236.495 153.624,238.229 149.114,240.85 						"/>
					</g>
				</g>
				<g style="enable-background:new    ;">
					<g>
						<polygon style="fill:#5EA7CC;" points="154.072,250.13 158.581,247.509 158.575,249.701 154.065,252.322 						"/>
					</g>
					<g>
						<polygon style="fill:#6EB8E3;" points="154.065,252.322 158.575,249.701 163.735,252.68 159.225,255.301 						"/>
					</g>
					<g>
						<polygon style="fill:#5EA7CC;" points="159.225,255.301 163.735,252.68 163.727,255.196 159.218,257.817 						"/>
					</g>
					<g>
						<polygon style="fill:#5EA7CC;" points="154.083,246.093 158.593,243.472 158.588,245.242 154.078,247.863 						"/>
					</g>
					<g>
						<polygon style="fill:#6EB8E3;" points="154.078,247.863 158.588,245.242 163.241,247.928 158.731,250.549 						"/>
					</g>
					<g>
						<polygon style="fill:#5EA7CC;" points="158.731,250.549 163.241,247.928 163.234,250.196 158.725,252.816 						"/>
					</g>
					<g>
						<polygon style="fill:#6EB8E3;" points="151.095,241.993 155.605,239.373 163.616,243.998 159.106,246.619 						"/>
					</g>
					<g>
						<polygon style="fill:#5EA7CC;" points="159.106,246.619 163.616,243.998 163.609,246.369 159.1,248.989 						"/>
					</g>
					<g>
						<polygon style="fill:#FCF5F9;" points="159.106,246.619 159.1,248.989 154.083,246.093 154.078,247.863 158.731,250.549 
							158.725,252.816 154.072,250.13 154.065,252.322 159.225,255.301 159.218,257.817 151.064,253.109 151.095,241.993 						"/>
					</g>
				</g>
				<g style="enable-background:new    ;">
					<g>
						<polygon style="fill:#5EA7CC;" points="163.884,255.992 168.393,253.372 168.38,257.883 163.871,260.504 						"/>
					</g>
					<g>
						<polygon style="fill:#6EB8E3;" points="163.89,253.889 168.399,251.269 169.657,251.995 165.148,254.616 						"/>
					</g>
					<g>
						<polygon style="fill:#5EA7CC;" points="163.896,251.632 168.406,249.011 168.399,251.269 163.89,253.889 						"/>
					</g>
					<g>
						<path style="fill:#6EB8E3;" d="M165.148,254.616l4.51-2.621c0.139,0.08,0.4,0.184,0.793,0.307l-4.51,2.621
							C165.548,254.8,165.287,254.696,165.148,254.616z"/>
					</g>
					<path style="fill:#5EA7CC;" d="M173.455,257.587c-0.069-0.204-0.211-0.517-0.419-0.933c-0.207-0.421-0.366-0.71-0.476-0.863
						c-0.163-0.23-0.42-0.515-0.775-0.857l-4.51,2.621c0.355,0.341,0.612,0.626,0.775,0.857c0.11,0.153,0.269,0.442,0.476,0.863
						c0.208,0.416,0.35,0.729,0.419,0.933l1.437,4.055l4.51-2.621L173.455,257.587z"/>
					<g>
						<path style="fill:#6EB8E3;" d="M170.866,252.289l-4.51,2.621c-0.114,0.066-0.251,0.07-0.415,0.014l4.51-2.621
							C170.615,252.359,170.751,252.355,170.866,252.289z"/>
					</g>
					<g>
						<polygon style="fill:#6EB8E3;" points="160.9,247.654 165.409,245.033 170.389,247.908 165.88,250.529 						"/>
					</g>
					<g>
						<path style="fill:#6EB8E3;" d="M173.38,254.927l-4.51,2.621c0.155-0.09,0.29-0.214,0.403-0.371
							c0.23-0.314,0.346-0.778,0.348-1.398c0.002-0.704-0.147-1.392-0.444-2.057c-0.297-0.665-0.688-1.229-1.178-1.695
							c-0.49-0.466-1.192-0.961-2.119-1.496l4.51-2.621c0.927,0.535,1.63,1.03,2.119,1.496c0.49,0.466,0.881,1.03,1.178,1.695
							c0.297,0.665,0.446,1.353,0.444,2.057c-0.002,0.62-0.118,1.084-0.348,1.398C173.669,254.713,173.535,254.836,173.38,254.927z"
							/>
					</g>
					<g>
						<path style="fill:#FCF5F9;" d="M168.946,260.208l1.437,4.055l-3.378-1.951l-1.588-4.321c-0.199-0.557-0.378-0.942-0.537-1.166
							c-0.216-0.299-0.461-0.525-0.731-0.68l-0.265-0.153l-0.013,4.511l-3.003-1.734l0.032-11.116l4.98,2.875
							c0.927,0.535,1.63,1.03,2.119,1.496c0.49,0.466,0.881,1.031,1.178,1.695c0.297,0.665,0.446,1.353,0.444,2.057
							c-0.002,0.62-0.118,1.084-0.348,1.398c-0.23,0.319-0.546,0.498-0.947,0.544c-0.258,0.03-0.606-0.025-1.051-0.165
							c0.355,0.341,0.612,0.626,0.775,0.857c0.11,0.153,0.269,0.442,0.476,0.863C168.734,259.691,168.877,260.004,168.946,260.208z
							 M166.428,254.857c0.127-0.115,0.189-0.295,0.19-0.539c0.001-0.357-0.096-0.69-0.296-0.998
							c-0.195-0.306-0.567-0.614-1.114-0.93l-1.311-0.757l-0.006,2.258l1.258,0.726c0.139,0.08,0.4,0.184,0.793,0.307
							C166.141,254.992,166.301,254.971,166.428,254.857"/>
					</g>
				</g>
				<g style="enable-background:new    ;">
					<g>
						<polygon style="fill:#5EA7CC;" points="174.342,261.833 178.852,259.212 178.846,261.405 174.336,264.025 						"/>
					</g>
					<g>
						<polygon style="fill:#6EB8E3;" points="174.336,264.025 178.846,261.405 184.005,264.384 179.496,267.004 						"/>
					</g>
					<g>
						<polygon style="fill:#5EA7CC;" points="179.496,267.004 184.005,264.384 183.998,266.9 179.489,269.52 						"/>
					</g>
					<g>
						<polygon style="fill:#5EA7CC;" points="174.354,257.796 178.863,255.176 178.858,256.945 174.349,259.566 						"/>
					</g>
					<g>
						<polygon style="fill:#6EB8E3;" points="174.349,259.566 178.858,256.945 183.511,259.632 179.002,262.252 						"/>
					</g>
					<g>
						<polygon style="fill:#5EA7CC;" points="179.002,262.252 183.511,259.632 183.505,261.899 178.995,264.52 						"/>
					</g>
					<g>
						<polygon style="fill:#6EB8E3;" points="171.366,253.697 175.876,251.076 183.887,255.701 179.377,258.322 						"/>
					</g>
					<g>
						<polygon style="fill:#5EA7CC;" points="179.377,258.322 183.887,255.701 183.88,258.072 179.37,260.693 						"/>
					</g>
					<g>
						<polygon style="fill:#FCF5F9;" points="179.377,258.322 179.37,260.693 174.354,257.796 174.349,259.566 179.002,262.252 
							178.995,264.52 174.342,261.833 174.336,264.025 179.496,267.004 179.489,269.52 171.335,264.813 171.366,253.697 						"/>
					</g>
				</g>
			</g>
		</g>
		<g>
			<g style="enable-background:new    ;">
				<g>
					<polygon style="fill:#3C5B68;" points="183.982,312.645 188.401,310.077 181.256,316.96 176.836,319.528 					"/>
				</g>
				<g>
					<polygon style="fill:#FCF5F9;" points="170.691,286.158 195.119,313.445 183.982,312.645 176.836,319.528 					"/>
				</g>
				<g>
					<polygon style="fill:#496A7A;" points="170.691,286.158 175.111,283.59 199.539,310.876 195.119,313.445 					"/>
				</g>
			</g>
		</g>
		<g>
			<g>
				<g id="XMLID_482_">
					<g id="XMLID_483_">
						<path id="XMLID_485_" style="fill:#45A9DA;" d="M427.025,271.49l-128.109-74.149c-2.428-1.402-4.628-1.53-6.217-0.606
							l-5.053,2.936c1.589-0.924,3.789-0.795,6.217,0.607l128.11,74.149c4.875,2.841,8.776,9.651,8.761,15.227l-0.27,92.653
							c-0.008,2.787-0.984,4.747-2.563,5.665l5.054-2.937c1.579-0.918,2.554-2.878,2.562-5.665l0.27-92.653
							C435.802,281.142,431.901,274.332,427.025,271.49z"/>
						<path id="XMLID_484_" style="fill:#FCF5F9;" d="M293.862,200.278l128.11,74.149c4.875,2.841,8.776,9.651,8.761,15.227
							l-0.27,92.653c-0.016,5.586-3.92,7.854-8.776,5.05l-128.11-74.149c-4.853-2.828-8.777-9.651-8.761-15.253l0.27-92.654
							C285.102,199.742,289.028,197.488,293.862,200.278z"/>
					</g>
				</g>
			</g>
			<path id="XMLID_486_" style="fill:#81D4F4;" d="M285.015,207.989l0.07-2.687c0.016-5.56,3.943-7.813,8.776-5.023l128.11,74.149
				c4.875,2.841,8.776,9.651,8.761,15.227l-0.07,2.686L285.015,207.989z"/>
			<g>
				<g>
					<path style="fill:#D52D46;" d="M312.187,276.064c0.509,1.029,0.761,2.093,0.758,3.201c-0.003,0.895-0.19,1.602-0.556,2.111
						s-0.866,0.786-1.499,0.84c-0.39,0.039-0.984-0.113-1.776-0.453c-1.048-0.45-1.75-0.775-2.095-0.974l-8.064-4.656l0.049-17.373
						l8.747,5.05c1.456,0.841,2.578,1.908,3.355,3.186c0.777,1.279,1.163,2.531,1.16,3.756c-0.003,1.027-0.28,1.749-0.844,2.158
						c-0.372,0.278-0.915,0.353-1.632,0.219C310.875,274.057,311.672,275.039,312.187,276.064z M307.765,276.987
						c0.333-0.131,0.5-0.475,0.502-1.033c0.001-0.514-0.163-1.02-0.488-1.516c-0.325-0.503-0.899-0.989-1.716-1.461l-2.375-1.371
						l-0.01,3.514l2.388,1.379C306.87,276.962,307.432,277.125,307.765,276.987 M303.707,265.002l-0.009,3.294l2.037,1.176
						c0.728,0.42,1.233,0.565,1.521,0.444c0.288-0.12,0.43-0.457,0.431-1c0.001-0.506-0.138-0.984-0.424-1.436
						c-0.286-0.452-0.784-0.879-1.486-1.284L303.707,265.002"/>
				</g>
				<g>
					<polygon style="fill:#D52D46;" points="320.093,270.935 320.056,284.031 327.347,288.241 327.335,292.518 315.377,285.614 
						315.426,268.241 					"/>
				</g>
				<g>
					<path style="fill:#D52D46;" d="M342.178,285.722c1.355,2.341,2.032,4.907,2.025,7.709c-0.006,2.025-0.311,3.517-0.908,4.473
						c-0.597,0.956-1.456,1.474-2.582,1.552c-1.132,0.066-2.531-0.374-4.211-1.343c-1.705-0.984-3.115-2.114-4.23-3.383
						c-1.116-1.269-2.019-2.783-2.705-4.531c-0.692-1.752-1.039-3.642-1.033-5.674c0.008-2.839,0.704-4.649,2.087-5.43
						c1.377-0.785,3.295-0.471,5.747,0.944C338.884,281.491,340.823,283.389,342.178,285.722z M338.694,294.226
						c0.551-0.439,0.83-1.623,0.835-3.567c0.005-1.636-0.279-2.998-0.845-4.081c-0.573-1.087-1.35-1.911-2.334-2.479
						c-0.945-0.546-1.699-0.599-2.276-0.16c-0.57,0.435-0.861,1.538-0.866,3.306c-0.005,1.753,0.279,3.181,0.845,4.272
						c0.56,1.095,1.331,1.922,2.308,2.486C337.363,294.582,338.143,294.657,338.694,294.226"/>
				</g>
				<g>
					<path style="fill:#D52D46;" d="M353.837,290.124c1.909,1.102,3.402,2.405,4.491,3.923c1.089,1.511,1.89,3.34,2.415,5.48
						l-4.128-1.332c-0.139-0.609-0.291-1.087-0.45-1.421c-0.261-0.562-0.579-1.062-0.955-1.499c-0.376-0.438-0.804-0.802-1.27-1.071
						c-1.06-0.612-1.872-0.589-2.437,0.07c-0.43,0.479-0.644,1.495-0.648,3.05c-0.005,1.922,0.246,3.39,0.749,4.393
						c0.509,1.014,1.223,1.779,2.142,2.31c0.894,0.516,1.571,0.621,2.033,0.314c0.455-0.318,0.789-0.963,1.003-1.941l4.089,3.786
						c-0.278,1.162-0.716,2.012-1.312,2.557c-0.59,0.541-1.326,0.785-2.208,0.731c-0.876-0.057-1.994-0.475-3.348-1.257
						c-1.641-0.947-2.981-2-4.02-3.151c-1.046-1.147-1.937-2.632-2.693-4.45c-0.749-1.821-1.121-3.807-1.115-5.957
						c0.008-2.876,0.678-4.701,2.011-5.475C349.519,288.402,351.404,288.719,353.837,290.124z"/>
				</g>
				<g>
					<polygon style="fill:#D52D46;" points="378.973,304.93 373.438,308.303 379.166,322.442 373.413,319.121 370.248,310.136 
						367.826,311.648 367.814,315.888 363.14,313.19 363.19,295.817 367.863,298.516 367.845,305.082 372.754,301.339 					"/>
				</g>
				<g>
					<polygon style="fill:#D52D46;" points="393.274,313.186 393.264,316.899 385.423,312.372 385.415,315.131 392.688,319.329 
						392.677,322.873 385.405,318.674 385.396,322.1 393.466,326.76 393.455,330.692 380.705,323.331 380.754,305.958 					"/>
				</g>
				<g>
					<path style="fill:#D52D46;" d="M409.604,327.891c0.246,1.2,0.364,2.393,0.361,3.574c-0.005,1.856-0.194,3.187-0.561,4.004
						c-0.373,0.806-0.886,1.369-1.539,1.683c-0.653,0.321-1.357,0.37-2.111,0.17c-1.022-0.274-1.949-0.655-2.785-1.138l-6.94-4.007
						l0.049-17.373l6.94,4.007c1.373,0.793,2.477,1.643,3.318,2.563c0.835,0.909,1.529,1.919,2.083,3.04
						C408.965,325.53,409.358,326.683,409.604,327.891z M404.912,331.678c0.238-0.487,0.356-1.426,0.36-2.813
						c0.005-1.841-0.253-3.254-0.768-4.228c-0.521-0.984-1.389-1.823-2.602-2.524l-1.162-0.671l-0.027,9.486l1.143,0.66
						c0.977,0.564,1.673,0.841,2.089,0.831C404.353,332.414,404.68,332.161,404.912,331.678"/>
				</g>
			</g>
			<path id="XMLID_487_" style="fill:#FCF5F9;" d="M294.186,204.002c0,0,125.973,72.955,126.484,73.296
				c2.397,1.596,6.172,5.346,6.171,8.096c0,0.792-0.012,1.531-0.012,1.531c-0.001,0.383-0.268,0.538-0.601,0.346l-132.062-76.536
				c-0.332-0.194-0.601-0.661-0.6-1.045l0.018-5.345C293.586,203.965,293.855,203.811,294.186,204.002z"/>
		</g>
		<g>
			<g>
				<g id="XMLID_490_">
					<g id="XMLID_491_">
						<path id="XMLID_493_" style="fill:#45A9DA;" d="M415.842,277.894l-128.109-74.149c-2.428-1.402-4.628-1.53-6.217-0.606
							l-5.053,2.936c1.589-0.924,3.789-0.795,6.217,0.607l128.11,74.149c4.875,2.841,8.776,9.651,8.761,15.227l-0.27,92.653
							c-0.009,2.786-0.984,4.747-2.563,5.665l5.054-2.937c1.579-0.918,2.554-2.878,2.562-5.665l0.27-92.653
							C424.619,287.545,420.718,280.736,415.842,277.894z"/>
						<path id="XMLID_492_" style="fill:#FCF5F9;" d="M282.679,206.682l128.11,74.149c4.875,2.841,8.776,9.651,8.761,15.228
							l-0.269,92.653c-0.016,5.586-3.92,7.854-8.776,5.05l-128.11-74.149c-4.852-2.828-8.777-9.651-8.761-15.253l0.27-92.654
							C273.919,206.145,277.845,203.892,282.679,206.682z"/>
					</g>
				</g>
			</g>
			<path id="XMLID_489_" style="fill:#79CEE8;" d="M273.832,214.393l0.07-2.687c0.016-5.56,3.943-7.813,8.776-5.023l128.11,74.149
				c4.875,2.841,8.776,9.651,8.761,15.228l-0.07,2.686L273.832,214.393z"/>
			<g>
				<g>
					<path style="fill:#D52D46;" d="M301.004,282.467c0.509,1.029,0.761,2.093,0.758,3.201c-0.003,0.895-0.19,1.603-0.556,2.111
						c-0.366,0.509-0.866,0.786-1.499,0.839c-0.39,0.039-0.984-0.113-1.777-0.453c-1.048-0.45-1.75-0.775-2.095-0.974l-8.064-4.656
						l0.049-17.373l8.747,5.05c1.456,0.84,2.578,1.908,3.355,3.186c0.777,1.279,1.163,2.531,1.16,3.756
						c-0.003,1.027-0.28,1.749-0.844,2.158c-0.372,0.278-0.915,0.353-1.631,0.219C299.692,280.46,300.489,281.442,301.004,282.467z
						 M296.582,283.39c0.333-0.131,0.5-0.475,0.502-1.033c0.001-0.514-0.163-1.02-0.488-1.517c-0.325-0.503-0.899-0.989-1.716-1.461
						l-2.375-1.371l-0.01,3.514l2.388,1.379C295.687,283.365,296.25,283.528,296.582,283.39 M292.524,271.405l-0.009,3.294
						l2.037,1.176c0.728,0.42,1.233,0.565,1.521,0.444c0.288-0.12,0.43-0.457,0.431-1c0.001-0.506-0.138-0.984-0.424-1.436
						c-0.286-0.452-0.784-0.879-1.486-1.284L292.524,271.405"/>
				</g>
				<g>
					<polygon style="fill:#D52D46;" points="308.91,277.339 308.873,290.435 316.164,294.644 316.152,298.921 304.194,292.017 
						304.243,274.644 					"/>
				</g>
				<g>
					<path style="fill:#D52D46;" d="M330.995,292.125c1.356,2.341,2.033,4.907,2.025,7.709c-0.006,2.025-0.31,3.517-0.908,4.473
						c-0.597,0.956-1.456,1.474-2.582,1.552c-1.132,0.067-2.531-0.374-4.211-1.343c-1.705-0.984-3.115-2.114-4.23-3.383
						s-2.02-2.783-2.705-4.531c-0.692-1.752-1.039-3.642-1.033-5.674c0.008-2.839,0.704-4.649,2.087-5.431
						c1.377-0.785,3.295-0.471,5.746,0.944C327.701,287.894,329.64,289.792,330.995,292.125z M327.512,300.629
						c0.551-0.439,0.83-1.623,0.835-3.567c0.005-1.636-0.279-2.998-0.845-4.081c-0.573-1.087-1.35-1.911-2.334-2.479
						c-0.945-0.546-1.699-0.599-2.276-0.16c-0.57,0.435-0.861,1.538-0.866,3.306c-0.005,1.753,0.279,3.181,0.845,4.272
						c0.56,1.095,1.331,1.922,2.308,2.486C326.18,300.985,326.96,301.061,327.512,300.629"/>
				</g>
				<g>
					<path style="fill:#D52D46;" d="M342.654,296.527c1.909,1.102,3.402,2.405,4.491,3.923c1.089,1.511,1.89,3.34,2.415,5.48
						l-4.128-1.332c-0.139-0.609-0.291-1.087-0.45-1.421c-0.261-0.562-0.579-1.062-0.955-1.499c-0.376-0.438-0.804-0.802-1.27-1.071
						c-1.06-0.612-1.872-0.589-2.437,0.07c-0.43,0.479-0.644,1.495-0.648,3.05c-0.005,1.922,0.246,3.39,0.749,4.393
						c0.509,1.014,1.223,1.779,2.142,2.31c0.894,0.516,1.572,0.621,2.033,0.314c0.455-0.318,0.789-0.962,1.003-1.941l4.089,3.786
						c-0.278,1.162-0.716,2.012-1.312,2.557c-0.59,0.541-1.326,0.785-2.208,0.731c-0.876-0.058-1.994-0.475-3.348-1.257
						c-1.641-0.947-2.981-2-4.02-3.151c-1.046-1.147-1.937-2.632-2.693-4.45c-0.75-1.822-1.121-3.807-1.115-5.957
						c0.008-2.876,0.678-4.701,2.011-5.475C338.336,294.805,340.221,295.122,342.654,296.527z"/>
				</g>
				<g>
					<polygon style="fill:#D52D46;" points="367.79,311.333 362.255,314.707 367.983,328.846 362.23,325.524 359.065,316.539 
						356.643,318.051 356.631,322.292 351.957,319.593 352.007,302.221 356.68,304.919 356.662,311.485 361.571,307.743 					"/>
				</g>
				<g>
					<polygon style="fill:#D52D46;" points="382.091,319.59 382.081,323.302 374.24,318.776 374.233,321.534 381.505,325.733 
						381.495,329.276 374.222,325.078 374.213,328.504 382.283,333.163 382.272,337.095 369.522,329.734 369.571,312.361 					"/>
				</g>
				<g>
					<path style="fill:#D52D46;" d="M398.421,334.294c0.246,1.2,0.364,2.393,0.361,3.574c-0.005,1.856-0.194,3.187-0.561,4.004
						c-0.373,0.806-0.886,1.369-1.54,1.683c-0.653,0.321-1.357,0.37-2.111,0.17c-1.022-0.274-1.949-0.655-2.785-1.138l-6.94-4.007
						l0.049-17.373l6.94,4.007c1.373,0.793,2.477,1.643,3.318,2.563c0.835,0.909,1.529,1.919,2.083,3.039
						C397.782,331.934,398.175,333.086,398.421,334.294z M393.729,338.081c0.238-0.487,0.356-1.426,0.36-2.813
						c0.005-1.842-0.253-3.255-0.768-4.228c-0.522-0.984-1.389-1.823-2.602-2.524l-1.162-0.671l-0.027,9.486l1.143,0.66
						c0.977,0.564,1.673,0.841,2.089,0.831C393.171,338.817,393.497,338.565,393.729,338.081"/>
				</g>
			</g>
			<path id="XMLID_488_" style="fill:#FCF5F9;" d="M283.003,210.406c0,0,125.972,72.955,126.484,73.296
				c2.397,1.596,6.172,5.346,6.171,8.096c0,0.792-0.012,1.531-0.012,1.531c-0.001,0.383-0.268,0.538-0.601,0.346l-132.062-76.536
				c-0.332-0.194-0.601-0.661-0.6-1.044l0.018-5.345C282.403,210.369,282.672,210.215,283.003,210.406z"/>
		</g>
		<g>
			<g>
				<g id="XMLID_496_">
					<g id="XMLID_497_">
						<path id="XMLID_499_" style="fill:#45A9DA;" d="M403.825,284.701l-128.109-74.149c-2.428-1.402-4.628-1.53-6.217-0.607
							l-5.053,2.936c1.589-0.924,3.789-0.795,6.217,0.607l128.11,74.149c4.875,2.841,8.776,9.651,8.761,15.227l-0.27,92.653
							c-0.009,2.787-0.984,4.747-2.563,5.665l5.054-2.937c1.579-0.918,2.554-2.878,2.562-5.665l0.27-92.653
							C412.602,294.352,408.701,287.543,403.825,284.701z"/>
						<path id="XMLID_498_" style="fill:#434242;" d="M270.662,213.489l128.11,74.149c4.875,2.841,8.776,9.651,8.761,15.227
							l-0.27,92.653c-0.016,5.586-3.92,7.854-8.776,5.05l-128.11-74.149c-4.852-2.828-8.777-9.651-8.761-15.253l0.27-92.654
							C261.902,212.952,265.828,210.699,270.662,213.489z"/>
					</g>
				</g>
			</g>
			<path id="XMLID_495_" style="fill:#81D4F4;" d="M261.815,221.2l0.07-2.687c0.016-5.56,3.943-7.813,8.776-5.023l128.11,74.149
				c4.875,2.841,8.776,9.651,8.761,15.227l-0.07,2.686L261.815,221.2z"/>
			<g>
				<g>
					<path style="fill:#D52D46;" d="M288.987,289.274c0.509,1.029,0.762,2.093,0.758,3.201c-0.003,0.895-0.19,1.602-0.556,2.111
						c-0.366,0.509-0.866,0.786-1.499,0.84c-0.39,0.039-0.985-0.113-1.777-0.453c-1.048-0.45-1.75-0.775-2.095-0.974l-8.064-4.656
						l0.049-17.373l8.747,5.05c1.456,0.841,2.578,1.908,3.355,3.186c0.777,1.279,1.163,2.531,1.16,3.756
						c-0.003,1.027-0.28,1.749-0.844,2.158c-0.372,0.278-0.915,0.353-1.631,0.219C287.675,287.268,288.472,288.249,288.987,289.274z
						 M284.565,290.197c0.333-0.131,0.5-0.475,0.502-1.033c0.001-0.514-0.163-1.02-0.488-1.516
						c-0.325-0.503-0.899-0.989-1.716-1.461l-2.375-1.371l-0.01,3.514l2.388,1.379C283.67,290.173,284.233,290.336,284.565,290.197
						 M280.507,278.212l-0.009,3.294l2.037,1.176c0.728,0.42,1.233,0.565,1.521,0.444c0.288-0.12,0.43-0.457,0.431-1
						c0.001-0.506-0.138-0.984-0.424-1.436c-0.287-0.452-0.784-0.879-1.486-1.284L280.507,278.212"/>
				</g>
				<g>
					<polygon style="fill:#D52D46;" points="296.893,284.146 296.856,297.242 304.147,301.451 304.135,305.728 292.177,298.824 
						292.226,281.452 					"/>
				</g>
				<g>
					<path style="fill:#D52D46;" d="M318.978,298.932c1.356,2.341,2.033,4.907,2.025,7.709c-0.006,2.025-0.31,3.517-0.908,4.473
						c-0.597,0.956-1.456,1.474-2.582,1.552c-1.132,0.067-2.531-0.374-4.211-1.343c-1.705-0.984-3.115-2.114-4.23-3.383
						c-1.116-1.269-2.02-2.783-2.705-4.531c-0.692-1.752-1.039-3.642-1.033-5.674c0.008-2.839,0.704-4.649,2.087-5.431
						c1.377-0.785,3.295-0.471,5.746,0.944C315.684,294.701,317.623,296.599,318.978,298.932z M315.494,307.437
						c0.551-0.439,0.83-1.623,0.835-3.567c0.005-1.636-0.279-2.998-0.845-4.081c-0.573-1.087-1.351-1.911-2.334-2.479
						c-0.945-0.546-1.699-0.599-2.276-0.16c-0.57,0.435-0.861,1.538-0.866,3.306c-0.005,1.753,0.279,3.181,0.845,4.272
						c0.56,1.095,1.331,1.922,2.308,2.486C314.163,307.793,314.943,307.868,315.494,307.437"/>
				</g>
				<g>
					<path style="fill:#D52D46;" d="M330.637,303.334c1.909,1.102,3.402,2.405,4.491,3.923c1.089,1.511,1.89,3.34,2.415,5.48
						l-4.128-1.332c-0.139-0.609-0.291-1.087-0.45-1.421c-0.261-0.562-0.579-1.062-0.955-1.499c-0.376-0.438-0.804-0.802-1.27-1.071
						c-1.06-0.612-1.872-0.589-2.437,0.07c-0.43,0.479-0.644,1.495-0.648,3.05c-0.005,1.922,0.246,3.39,0.749,4.393
						c0.509,1.014,1.223,1.779,2.142,2.31c0.894,0.516,1.572,0.621,2.033,0.314c0.455-0.318,0.789-0.963,1.003-1.941l4.089,3.786
						c-0.278,1.162-0.716,2.012-1.312,2.557c-0.59,0.541-1.326,0.785-2.208,0.731c-0.876-0.057-1.994-0.475-3.348-1.257
						c-1.641-0.947-2.981-2-4.02-3.151c-1.046-1.148-1.937-2.632-2.693-4.45c-0.75-1.821-1.121-3.807-1.115-5.957
						c0.008-2.876,0.678-4.701,2.011-5.475C326.319,301.613,328.204,301.93,330.637,303.334z"/>
				</g>
				<g>
					<polygon style="fill:#D52D46;" points="355.773,318.14 350.238,321.514 355.966,335.653 350.213,332.332 347.048,323.347 
						344.626,324.858 344.614,329.099 339.94,326.401 339.99,309.028 344.663,311.726 344.645,318.292 349.554,314.55 					"/>
				</g>
				<g>
					<polygon style="fill:#D52D46;" points="370.074,326.397 370.064,330.109 362.223,325.583 362.215,328.341 369.488,332.54 
						369.478,336.083 362.205,331.885 362.196,335.311 370.266,339.97 370.255,343.903 357.505,336.541 357.554,319.169 					"/>
				</g>
				<g>
					<path style="fill:#D52D46;" d="M386.404,341.101c0.246,1.2,0.364,2.393,0.361,3.574c-0.005,1.856-0.195,3.187-0.561,4.004
						c-0.373,0.806-0.886,1.369-1.54,1.683c-0.653,0.321-1.357,0.37-2.111,0.17c-1.022-0.274-1.949-0.655-2.785-1.138l-6.94-4.007
						l0.049-17.373l6.94,4.007c1.373,0.793,2.477,1.643,3.318,2.562c0.835,0.909,1.529,1.919,2.083,3.04
						C385.765,338.741,386.158,339.894,386.404,341.101z M381.712,344.888c0.238-0.487,0.356-1.426,0.36-2.813
						c0.005-1.841-0.253-3.254-0.768-4.228c-0.522-0.984-1.389-1.823-2.602-2.524l-1.162-0.671l-0.027,9.486l1.143,0.66
						c0.977,0.564,1.673,0.841,2.089,0.831C381.154,345.624,381.48,345.372,381.712,344.888"/>
				</g>
			</g>
			<path id="XMLID_494_" style="fill:#FCF5F9;" d="M270.986,217.213c0,0,125.972,72.955,126.484,73.296
				c2.397,1.596,6.172,4.346,6.171,7.096c0,0.792-0.012,1.531-0.012,1.531c-0.001,0.383-0.268,0.538-0.601,0.346l-132.062-76.536
				c-0.332-0.194-0.601-0.661-0.6-1.045l0.018-4.345C270.386,217.176,270.655,217.022,270.986,217.213z"/>
		</g>
		<g>
			<g>
				<g style="enable-background:new    ;">
					<g>
						<path style="fill:#D52D46;" d="M290.158,318.666c1.818,1.049,3.633,3.133,4.665,5.799l28.401,73.339
							c2.065,5.334-0.545,9.003-4.699,6.604l-57.129-32.983c-4.154-2.398-6.734-9.064-4.646-12l28.724-40.358
							C286.52,317.601,288.34,317.617,290.158,318.666z"/>
					</g>
					<path style="fill:#C12B48;" d="M327.341,395.413l-28.401-73.339c-1.033-2.667-2.848-4.75-4.665-5.8
						c-1.39-0.802-2.781-1.001-3.826-0.393l-4.116,2.392c1.045-0.607,2.436-0.409,3.826,0.393c1.818,1.049,3.633,3.133,4.665,5.799
						l28.401,73.339c1.299,3.355,0.748,6.051-0.873,6.993l4.116-2.392C328.089,401.464,328.64,398.768,327.341,395.413z"/>
				</g>
			</g>
			<g>
				<g>
					<polygon style="fill:#EDEBEC;" points="283.645,373.002 283.666,365.742 290.814,369.869 290.793,377.129 					"/>
				</g>
				<g>
					<polygon style="fill:#EDEBEC;" points="283.464,343.195 291.123,347.617 291.104,354.372 289.584,367.087 284.849,364.354 
						283.445,349.95 					"/>
				</g>
			</g>
		</g>
	</g>
</g>
</svg>
